Moderustic-ExtraBold.ufo
<glyph name="quotedbl" format="2">
  <advance width="409"/>
  <unicode hex="0022"/>
  <outline>
    <contour>
      <point x="35" y="526" type="line"/>
      <point x="173" y="526" type="line"/>
      <point x="188" y="803" type="line"/>
      <point x="20" y="803" type="line"/>
    </contour>
    <contour>
      <point x="236" y="526" type="line"/>
      <point x="374" y="526" type="line"/>
      <point x="389" y="803" type="line"/>
      <point x="221" y="803" type="line"/>
    </contour>
  </outline>
</glyph>
<glyph name="comma" format="2">
  <advance width="262"/>
  <unicode hex="002C"/>
  <outline>
    <contour>
      <point x="47" y="-191" type="line"/>
      <point x="159" y="-136"/>
      <point x="233" y="-34"/>
      <point x="233" y="64" type="curve" smooth="yes"/>
      <point x="233" y="140"/>
      <point x="189" y="184"/>
      <point x="131" y="184" type="curve" smooth="yes"/>
      <point x="72" y="184"/>
      <point x="29" y="140"/>
      <point x="29" y="83" type="curve" smooth="yes"/>
      <point x="29" y="25"/>
      <point x="73" y="-20"/>
      <point x="129" y="-20" type="curve"/>
      <point x="114" y="-53"/>
      <point x="78" y="-92"/>
      <point x="33" y="-126" type="curve"/>
    </contour>
  </outline>
</glyph>
<glyph name="zero" format="2">
  <advance width="627"/>
  <unicode hex="0030"/>
  <outline>
    <contour>
      <point x="315.995" y="-19" type="curve" smooth="yes"/>
      <point x="498.862" y="-19"/>
      <point x="587.5" y="99.4"/>
      <point x="587.5" y="350" type="curve" smooth="yes"/>
      <point x="587.5" y="594.04"/>
      <point x="495.548" y="720"/>
      <point x="319.988" y="720" type="curve" smooth="yes"/>
      <point x="138.13" y="720"/>
      <point x="39.5" y="590.43"/>
      <point x="39.5" y="350" type="curve" smooth="yes"/>
      <point x="39.5" y="112.69"/>
      <point x="135.047" y="-19"/>
    </contour>
    <contour>
      <point x="316.015" y="121" type="curve" smooth="yes"/>
      <point x="253.644" y="121"/>
      <point x="229.5" y="198"/>
      <point x="229.5" y="350" type="curve" smooth="yes"/>
      <point x="229.5" y="530"/>
      <point x="263.704" y="580"/>
      <point x="317.021" y="580" type="curve" smooth="yes"/>
      <point x="370.338" y="580"/>
      <point x="397.5" y="530"/>
      <point x="397.5" y="351" type="curve" smooth="yes"/>
      <point x="397.5" y="197"/>
      <point x="377.38" y="121"/>
    </contour>
  </outline>
</glyph>
<glyph name="three" format="2">
  <advance width="578"/>
  <unicode hex="0033"/>
  <outline>
    <contour>
      <point x="24" y="84" type="line"/>
      <point x="87" y="17"/>
      <point x="173" y="-19"/>
      <point x="289" y="-19" type="curve" smooth="yes"/>
      <point x="456" y="-19"/>
      <point x="543" y="56"/>
      <point x="543" y="188" type="curve" smooth="yes"/>
      <point x="543" y="322"/>
      <point x="454" y="386"/>
      <point x="192" y="366" type="curve"/>
      <point x="192" y="276" type="line"/>
      <point x="303" y="276"/>
      <point x="353" y="252"/>
      <point x="353" y="193" type="curve" smooth="yes"/>
      <point x="353" y="146"/>
      <point x="321" y="121"/>
      <point x="268" y="121" type="curve" smooth="yes"/>
      <point x="219" y="121"/>
      <point x="179" y="140"/>
      <point x="132" y="192" type="curve"/>
    </contour>
    <contour>
      <point x="192" y="352" type="line"/>
      <point x="420" y="342"/>
      <point x="520" y="403"/>
      <point x="520" y="525" type="curve" smooth="yes"/>
      <point x="520" y="627"/>
      <point x="449" y="720"/>
      <point x="281" y="720" type="curve" smooth="yes"/>
      <point x="147" y="720"/>
      <point x="64" y="661"/>
      <point x="27" y="624" type="curve"/>
      <point x="135" y="516" type="line"/>
      <point x="165" y="546"/>
      <point x="206" y="580"/>
      <point x="260" y="580" type="curve" smooth="yes"/>
      <point x="304" y="580"/>
      <point x="330" y="557"/>
      <point x="330" y="514" type="curve" smooth="yes"/>
      <point x="330" y="461"/>
      <point x="290" y="442"/>
      <point x="192" y="442" type="curve"/>
    </contour>
  </outline>
</glyph>
<glyph name="five" format="2">
  <advance width="615"/>
  <unicode hex="0035"/>
  <outline>
    <contour>
      <point x="23" y="102" type="line"/>
      <point x="93" y="24"/>
      <point x="169" y="-20"/>
      <point x="281.907" y="-20" type="curve" smooth="yes"/>
      <point x="457" y="-20"/>
      <point x="570" y="79.7886"/>
      <point x="570" y="230.469" type="curve" smooth="yes"/>
      <point x="570" y="364.186"/>
      <point x="480" y="452"/>
      <point x="350" y="452" type="curve" smooth="yes"/>
      <point x="306" y="452"/>
      <point x="268" y="442.4"/>
      <point x="244" y="428" type="curve"/>
      <point x="264" y="560" type="line"/>
      <point x="538" y="560" type="line"/>
      <point x="538" y="700" type="line"/>
      <point x="117" y="700" type="line"/>
      <point x="48" y="242" type="line"/>
      <point x="151" y="293"/>
      <point x="222" y="322"/>
      <point x="283" y="322" type="curve" smooth="yes"/>
      <point x="350" y="322"/>
      <point x="380" y="286"/>
      <point x="380" y="226" type="curve" smooth="yes"/>
      <point x="380" y="164"/>
      <point x="348" y="120"/>
      <point x="272" y="120" type="curve" smooth="yes"/>
      <point x="211" y="120"/>
      <point x="177" y="149"/>
      <point x="128" y="207" type="curve"/>
    </contour>
  </outline>
</glyph>
<glyph name="question" format="2">
  <advance width="551"/>
  <unicode hex="003F"/>
  <outline>
    <contour>
      <point x="152" y="250" type="line"/>
      <point x="342" y="250" type="line"/>
      <point x="342" y="334" type="line"/>
      <point x="448" y="390"/>
      <point x="519" y="480"/>
      <point x="519" y="575" type="curve" smooth="yes"/>
      <point x="519" y="688"/>
      <point x="418" y="767"/>
      <point x="274" y="767" type="curve" smooth="yes"/>
      <point x="161" y="767"/>
      <point x="60" y="718"/>
      <point x="2" y="646" type="curve"/>
      <point x="108" y="540" type="line"/>
      <point x="157" y="600"/>
      <point x="212" y="626"/>
      <point x="258" y="626" type="curve" smooth="yes"/>
      <point x="310" y="626"/>
      <point x="329" y="593"/>
      <point x="329" y="552" type="curve" smooth="yes"/>
      <point x="329" y="482"/>
      <point x="275" y="426"/>
      <point x="152" y="365" type="curve"/>
    </contour>
    <contour>
      <point x="250" y="-20" type="curve" smooth="yes"/>
      <point x="303.33" y="-20"/>
      <point x="343.788" y="22.2965"/>
      <point x="343.788" y="74.7074" type="curve" smooth="yes"/>
      <point x="343.788" y="127.118"/>
      <point x="303.33" y="167.576"/>
      <point x="250" y="167.576" type="curve" smooth="yes"/>
      <point x="195.75" y="167.576"/>
      <point x="156.212" y="127.118"/>
      <point x="156.212" y="74.7074" type="curve" smooth="yes"/>
      <point x="156.212" y="22.2965"/>
      <point x="195.75" y="-20"/>
    </contour>
  </outline>
</glyph>
<glyph name="B" format="2">
  <advance width="634"/>
  <unicode hex="0042"/>
  <anchor x="308" y="719" name="top"/>
  <anchor x="328" y="-20" name="bottom"/>
  <outline>
    <contour>
      <point x="68" y="0" type="line"/>
      <point x="356" y="0" type="line" smooth="yes"/>
      <point x="518" y="0"/>
      <point x="604" y="97"/>
      <point x="604" y="205" type="curve" smooth="yes"/>
      <point x="604" y="328"/>
      <point x="494" y="372"/>
      <point x="365" y="372" type="curve"/>
      <point x="493" y="372"/>
      <point x="558" y="426"/>
      <point x="558" y="518" type="curve" smooth="yes"/>
      <point x="558" y="614"/>
      <point x="487" y="700"/>
      <point x="316" y="700" type="curve" smooth="yes"/>
      <point x="68" y="700" type="line"/>
    </contour>
    <contour>
      <point x="258" y="140" type="line"/>
      <point x="258" y="560" type="line"/>
      <point x="284" y="560" type="line" smooth="yes"/>
      <point x="343" y="560"/>
      <point x="369" y="538"/>
      <point x="369" y="501" type="curve" smooth="yes"/>
      <point x="369" y="461"/>
      <point x="338" y="436"/>
      <point x="292" y="436" type="curve" smooth="yes"/>
      <point x="100" y="436" type="line"/>
      <point x="100" y="300" type="line"/>
      <point x="286" y="300" type="line" smooth="yes"/>
      <point x="373" y="300"/>
      <point x="416" y="287"/>
      <point x="416" y="223" type="curve" smooth="yes"/>
      <point x="416" y="163"/>
      <point x="377" y="140"/>
      <point x="301" y="140" type="curve" smooth="yes"/>
    </contour>
  </outline>
</glyph>
<glyph name="F" format="2">
  <advance width="540"/>
  <unicode hex="0046"/>
  <anchor x="270" y="719" name="top"/>
  <anchor x="281" y="-20" name="bottom"/>
  <outline>
    <contour>
      <point x="68" y="0" type="line"/>
      <point x="258" y="0" type="line"/>
      <point x="258" y="270" type="line"/>
      <point x="473" y="270" type="line"/>
      <point x="473" y="410" type="line"/>
      <point x="258" y="410" type="line"/>
      <point x="258" y="560" type="line"/>
      <point x="498" y="560" type="line"/>
      <point x="498" y="700" type="line"/>
      <point x="68" y="700" type="line"/>
    </contour>
  </outline>
</glyph>
<glyph name="G" format="2">
  <advance width="786"/>
  <unicode hex="0047"/>
  <anchor x="393" y="719" name="top"/>
  <anchor x="393" y="-20" name="bottom"/>
  <outline>
    <contour>
      <point x="587" y="0" type="line"/>
      <point x="729" y="0" type="line"/>
      <point x="729" y="391" type="line"/>
      <point x="341" y="391" type="line"/>
      <point x="341" y="251" type="line"/>
      <point x="587" y="251" type="line"/>
    </contour>
    <contour>
      <point x="624" y="219" type="curve"/>
      <point x="576" y="307" type="line"/>
      <point x="576" y="193.855"/>
      <point x="491.483" y="124"/>
      <point x="390.062" y="124" type="curve" smooth="yes"/>
      <point x="301.568" y="124"/>
      <point x="226" y="177.293"/>
      <point x="226" y="357.895" type="curve" smooth="yes"/>
      <point x="226" y="504.943"/>
      <point x="276.706" y="576"/>
      <point x="394.026" y="576" type="curve" smooth="yes"/>
      <point x="464.617" y="576"/>
      <point x="516.317" y="550.907"/>
      <point x="571" y="493" type="curve"/>
      <point x="677" y="599" type="line"/>
      <point x="623" y="665"/>
      <point x="517" y="720"/>
      <point x="380" y="720" type="curve" smooth="yes"/>
      <point x="166" y="720"/>
      <point x="33" y="587"/>
      <point x="33" y="350" type="curve" smooth="yes"/>
      <point x="33" y="133"/>
      <point x="153" y="-20"/>
      <point x="347" y="-20" type="curve" smooth="yes"/>
      <point x="516" y="-20"/>
      <point x="624" y="96"/>
    </contour>
  </outline>
</glyph>
<glyph name="K" format="2">
  <advance width="670"/>
  <unicode hex="004B"/>
  <anchor x="335" y="-20" name="bottom"/>
  <anchor x="335" y="719" name="top"/>
  <outline>
    <contour>
      <point x="48" y="0" type="line"/>
      <point x="48" y="700" type="line"/>
      <point x="238" y="700" type="line"/>
      <point x="238" y="0" type="line"/>
    </contour>
    <contour>
      <point x="119" y="282" type="line"/>
      <point x="130" y="426" type="line"/>
      <point x="306" y="426" type="line"/>
      <point x="464" y="700" type="line"/>
      <point x="665" y="700" type="line"/>
      <point x="457" y="367" type="line"/>
      <point x="669" y="0" type="line"/>
      <point x="450" y="0" type="line"/>
      <point x="294" y="282" type="line"/>
    </contour>
  </outline>
</glyph>
<glyph name="L" format="2">
  <advance width="554"/>
  <unicode hex="004C"/>
  <anchor x="162" y="719" name="top"/>
  <anchor x="277" y="-20" name="bottom"/>
  <outline>
    <contour>
      <point x="68" y="0" type="line"/>
      <point x="514" y="0" type="line"/>
      <point x="514" y="140" type="line"/>
      <point x="258" y="140" type="line"/>
      <point x="258" y="700" type="line"/>
      <point x="68" y="700" type="line"/>
    </contour>
  </outline>
</glyph>
<glyph name="O" format="2">
  <advance width="795"/>
  <unicode hex="004F"/>
  <anchor x="398" y="719" name="top"/>
  <anchor x="398" y="-20" name="bottom"/>
  <anchor x="522" y="-2" name="ogonek"/>
  <anchor x="-14" y="500" name="topgr"/>
  <outline>
    <contour>
      <point x="398.983" y="124" type="curve" smooth="yes"/>
      <point x="290.251" y="124"/>
      <point x="226" y="210.847"/>
      <point x="226" y="352.961" type="curve" smooth="yes"/>
      <point x="226" y="496.061"/>
      <point x="286.297" y="576"/>
      <point x="395.029" y="576" type="curve" smooth="yes"/>
      <point x="505.738" y="576"/>
      <point x="569" y="491.127"/>
      <point x="569" y="346.052" type="curve" smooth="yes"/>
      <point x="569" y="202.952"/>
      <point x="508.703" y="124"/>
    </contour>
    <contour>
      <point x="397" y="-20" type="curve" smooth="yes"/>
      <point x="614" y="-20"/>
      <point x="762" y="125"/>
      <point x="762" y="350" type="curve" smooth="yes"/>
      <point x="762" y="568"/>
      <point x="618" y="720"/>
      <point x="398" y="720" type="curve" smooth="yes"/>
      <point x="178" y="720"/>
      <point x="33" y="569"/>
      <point x="33" y="350" type="curve" smooth="yes"/>
      <point x="33" y="127"/>
      <point x="181" y="-20"/>
    </contour>
  </outline>
</glyph>
<glyph name="P" format="2">
  <advance width="644"/>
  <unicode hex="0050"/>
  <anchor x="322" y="719" name="top"/>
  <anchor x="322" y="-20" name="bottom"/>
  <outline>
    <contour>
      <point x="68" y="0" type="line"/>
      <point x="258" y="0" type="line"/>
      <point x="258" y="216" type="line"/>
      <point x="334" y="216" type="line" smooth="yes"/>
      <point x="524" y="216"/>
      <point x="605" y="334"/>
      <point x="605" y="460" type="curve" smooth="yes"/>
      <point x="605" y="585"/>
      <point x="524" y="700"/>
      <point x="334" y="700" type="curve" smooth="yes"/>
      <point x="68" y="700" type="line"/>
    </contour>
    <contour>
      <point x="258" y="356" type="line"/>
      <point x="258" y="560" type="line"/>
      <point x="299" y="560" type="line" smooth="yes"/>
      <point x="357" y="560"/>
      <point x="414" y="543.842"/>
      <point x="414" y="458" type="curve" smooth="yes"/>
      <point x="414" y="372.158"/>
      <point x="358" y="356"/>
      <point x="299" y="356" type="curve" smooth="yes"/>
    </contour>
  </outline>
</glyph>
<glyph name="R" format="2">
  <advance width="648"/>
  <unicode hex="0052"/>
  <anchor x="324" y="719" name="top"/>
  <anchor x="324" y="-20" name="bottom"/>
  <outline>
    <contour>
      <point x="68" y="0" type="line"/>
      <point x="258" y="0" type="line"/>
      <point x="258" y="560" type="line"/>
      <point x="309" y="560" type="line" smooth="yes"/>
      <point x="393" y="560"/>
      <point x="418" y="534"/>
      <point x="418" y="472" type="curve" smooth="yes"/>
      <point x="418" y="410"/>
      <point x="393" y="384"/>
      <point x="309" y="384" type="curve" smooth="yes"/>
      <point x="100" y="384" type="line"/>
      <point x="100" y="244" type="line"/>
      <point x="348" y="244" type="line" smooth="yes"/>
      <point x="507" y="244"/>
      <point x="609" y="334"/>
      <point x="609" y="476" type="curve" smooth="yes"/>
      <point x="609" y="615"/>
      <point x="511" y="700"/>
      <point x="348" y="700" type="curve" smooth="yes"/>
      <point x="68" y="700" type="line"/>
    </contour>
    <contour>
      <point x="423" y="0" type="line"/>
      <point x="627" y="0" type="line"/>
      <point x="457" y="333" type="line"/>
      <point x="280" y="281" type="line"/>
    </contour>
  </outline>
</glyph>
<glyph name="a" format="2">
  <advance width="645"/>
  <unicode hex="0061"/>
  <anchor x="330" y="520" name="top"/>
  <anchor x="322" y="-20" name="bottom"/>
  <anchor x="584" y="-3" name="ogonek"/>
  <outline>
    <contour>
      <point x="402" y="0" type="line"/>
      <point x="592" y="0" type="line"/>
      <point x="592" y="500" type="line"/>
      <point x="402" y="500" type="line"/>
    </contour>
    <contour>
      <point x="259" y="-20" type="curve" smooth="yes"/>
      <point x="375" y="-20"/>
      <point x="434" y="82"/>
      <point x="434" y="258" type="curve" smooth="yes"/>
      <point x="434" y="432"/>
      <point x="376" y="520"/>
      <point x="255" y="520" type="curve" smooth="yes"/>
      <point x="120" y="520"/>
      <point x="49" y="411"/>
      <point x="49" y="262" type="curve" smooth="yes"/>
      <point x="49" y="99"/>
      <point x="134" y="-20"/>
    </contour>
    <contour>
      <point x="322" y="116" type="curve" smooth="yes"/>
      <point x="271" y="116"/>
      <point x="239" y="167"/>
      <point x="239" y="251" type="curve" smooth="yes"/>
      <point x="239" y="334"/>
      <point x="270" y="383"/>
      <point x="321" y="383" type="curve" smooth="yes"/>
      <point x="372" y="383"/>
      <point x="402" y="335"/>
      <point x="402" y="251" type="curve" smooth="yes"/>
      <point x="402" y="168"/>
      <point x="373" y="116"/>
    </contour>
  </outline>
</glyph>
<glyph name="b" format="2">
  <advance width="635"/>
  <unicode hex="0062"/>
  <anchor x="345" y="-20" name="bottom"/>
  <anchor x="353" y="750" name="top"/>
  <outline>
    <contour>
      <point x="60" y="0" type="line"/>
      <point x="250" y="0" type="line"/>
      <point x="250" y="750" type="line"/>
      <point x="60" y="750" type="line"/>
    </contour>
    <contour>
      <point x="387.974" y="-20" type="curve" smooth="yes"/>
      <point x="510" y="-20"/>
      <point x="593" y="99"/>
      <point x="593" y="255" type="curve" smooth="yes"/>
      <point x="593" y="411"/>
      <point x="524" y="520"/>
      <point x="392.319" y="520" type="curve" smooth="yes"/>
      <point x="274" y="520"/>
      <point x="218" y="432"/>
      <point x="218" y="255" type="curve" smooth="yes"/>
      <point x="218" y="82"/>
      <point x="275" y="-20"/>
    </contour>
    <contour>
      <point x="322" y="120" type="curve" smooth="yes"/>
      <point x="277" y="120"/>
      <point x="250" y="170.637"/>
      <point x="250" y="255.356" type="curve" smooth="yes"/>
      <point x="250" y="333.258"/>
      <point x="278" y="380"/>
      <point x="326" y="380" type="curve" smooth="yes"/>
      <point x="374" y="380"/>
      <point x="403" y="332.285"/>
      <point x="403" y="254.382" type="curve" smooth="yes"/>
      <point x="403" y="169.663"/>
      <point x="373" y="120"/>
    </contour>
  </outline>
</glyph>
<glyph name="c" format="2">
  <advance width="563"/>
  <unicode hex="0063"/>
  <anchor x="303" y="520" name="top"/>
  <anchor x="303" y="-20" name="bottom"/>
  <outline>
    <contour>
      <point x="426.235" y="167.765" type="line"/>
      <point x="396" y="137.124"/>
      <point x="355" y="120"/>
      <point x="312" y="120" type="curve" smooth="yes"/>
      <point x="246" y="120"/>
      <point x="219" y="163.643"/>
      <point x="219" y="250.929" type="curve" smooth="yes"/>
      <point x="219" y="337.286"/>
      <point x="242" y="380"/>
      <point x="317" y="380" type="curve" smooth="yes"/>
      <point x="361" y="380"/>
      <point x="388.883" y="365.179"/>
      <point x="423" y="332" type="curve"/>
      <point x="521" y="430" type="line"/>
      <point x="465" y="486"/>
      <point x="395" y="520"/>
      <point x="292" y="520" type="curve" smooth="yes"/>
      <point x="129" y="520"/>
      <point x="29" y="421"/>
      <point x="29" y="255" type="curve" smooth="yes"/>
      <point x="29" y="79"/>
      <point x="130" y="-20"/>
      <point x="292" y="-20" type="curve" smooth="yes"/>
      <point x="397" y="-20"/>
      <point x="468" y="14"/>
      <point x="524" y="70" type="curve"/>
    </contour>
  </outline>
</glyph>
<glyph name="f" format="2">
  <advance width="423"/>
  <unicode hex="0066"/>
  <anchor x="230" y="750" name="top"/>
  <anchor x="183" y="-20" name="bottom"/>
  <outline>
    <contour>
      <point x="89" y="0" type="line"/>
      <point x="279" y="0" type="line"/>
      <point x="279" y="370" type="line"/>
      <point x="405" y="370" type="line"/>
      <point x="405" y="500" type="line"/>
      <point x="279" y="500" type="line"/>
      <point x="279" y="541" type="line" smooth="yes"/>
      <point x="279" y="578"/>
      <point x="295" y="612"/>
      <point x="338" y="612" type="curve" smooth="yes"/>
      <point x="349" y="612"/>
      <point x="366" y="610"/>
      <point x="383" y="604" type="curve"/>
      <point x="421" y="728" type="line"/>
      <point x="364" y="745.739"/>
      <point x="326" y="752"/>
      <point x="287" y="752" type="curve" smooth="yes"/>
      <point x="158" y="752"/>
      <point x="89" y="684.733"/>
      <point x="89" y="568.271" type="curve" smooth="yes"/>
      <point x="89" y="500" type="line"/>
      <point x="12" y="500" type="line"/>
      <point x="12" y="370" type="line"/>
      <point x="89" y="370" type="line"/>
    </contour>
  </outline>
</glyph>
<glyph name="h" format="2">
  <advance width="635"/>
  <unicode hex="0068"/>
  <anchor x="318" y="-20" name="bottom"/>
  <anchor x="151" y="750" name="top"/>
  <outline>
    <contour>
      <point x="59" y="0" type="line"/>
      <point x="249" y="0" type="line"/>
      <point x="249" y="750" type="line"/>
      <point x="59" y="750" type="line"/>
    </contour>
    <contour>
      <point x="386" y="0" type="line"/>
      <point x="576" y="0" type="line"/>
      <point x="576" y="314" type="line" smooth="yes"/>
      <point x="576" y="458"/>
      <point x="512" y="520"/>
      <point x="418" y="520" type="curve" smooth="yes"/>
      <point x="327" y="520"/>
      <point x="258" y="461"/>
      <point x="231" y="360" type="curve"/>
      <point x="233" y="282" type="line"/>
      <point x="249" y="217" type="line"/>
      <point x="249" y="313.18"/>
      <point x="269" y="380"/>
      <point x="324" y="380" type="curve" smooth="yes"/>
      <point x="364" y="380"/>
      <point x="386" y="344.815"/>
      <point x="386" y="267.407" type="curve" smooth="yes"/>
    </contour>
  </outline>
</glyph>
<glyph name="l" format="2">
  <advance width="350"/>
  <unicode hex="006C"/>
  <anchor x="150" y="750" name="top"/>
  <anchor x="202" y="-20" name="bottom"/>
  <anchor x="280" y="750" name="topright"/>
  <outline>
    <contour>
      <point x="319" y="133" type="line"/>
      <point x="300" y="123.25"/>
      <point x="290" y="120"/>
      <point x="280" y="120" type="curve" smooth="yes"/>
      <point x="255" y="120"/>
      <point x="244" y="141.033"/>
      <point x="244" y="207.138" type="curve" smooth="yes"/>
      <point x="244" y="750" type="line"/>
      <point x="54" y="750" type="line"/>
      <point x="54" y="132" type="line" smooth="yes"/>
      <point x="54" y="26"/>
      <point x="104" y="-20"/>
      <point x="220" y="-20" type="curve" smooth="yes"/>
      <point x="268" y="-20"/>
      <point x="299" y="-12"/>
      <point x="346" y="3" type="curve"/>
    </contour>
  </outline>
</glyph>
<glyph name="m" format="2">
  <advance width="943"/>
  <unicode hex="006D"/>
  <anchor x="472" y="520" name="top"/>
  <anchor x="472" y="-20" name="bottom"/>
  <outline>
    <contour>
      <point x="64" y="0" type="line"/>
      <point x="254" y="0" type="line"/>
      <point x="254" y="500" type="line"/>
      <point x="64" y="500" type="line"/>
    </contour>
    <contour>
      <point x="376" y="0" type="line"/>
      <point x="566" y="0" type="line"/>
      <point x="566" y="314" type="line" smooth="yes"/>
      <point x="566" y="458"/>
      <point x="505" y="520"/>
      <point x="415" y="520" type="curve" smooth="yes"/>
      <point x="328" y="520"/>
      <point x="262" y="461"/>
      <point x="236" y="360" type="curve"/>
      <point x="238" y="282" type="line"/>
      <point x="254" y="217" type="line"/>
      <point x="254" y="313.18"/>
      <point x="272" y="380"/>
      <point x="321" y="380" type="curve" smooth="yes"/>
      <point x="357" y="380"/>
      <point x="376" y="344.815"/>
      <point x="376" y="267.407" type="curve" smooth="yes"/>
    </contour>
    <contour>
      <point x="688" y="0" type="line"/>
      <point x="878" y="0" type="line"/>
      <point x="878" y="314" type="line" smooth="yes"/>
      <point x="878" y="458"/>
      <point x="817" y="520"/>
      <point x="727" y="520" type="curve" smooth="yes"/>
      <point x="640" y="520"/>
      <point x="574" y="461"/>
      <point x="548" y="360" type="curve"/>
      <point x="550" y="282" type="line"/>
      <point x="566" y="217" type="line"/>
      <point x="566" y="313.18"/>
      <point x="584" y="380"/>
      <point x="633" y="380" type="curve" smooth="yes"/>
      <point x="669" y="380"/>
      <point x="688" y="344.815"/>
      <point x="688" y="267.407" type="curve" smooth="yes"/>
    </contour>
  </outline>
</glyph>
<glyph name="u" format="2">
  <advance width="600"/>
  <unicode hex="0075"/>
  <anchor x="408" y="-3" name="ogonek"/>
  <anchor x="300" y="520" name="top"/>
  <anchor x="300" y="-20" name="bottom"/>
  <outline>
    <contour>
      <point x="53" y="500" type="line"/>
      <point x="53" y="185" type="line" smooth="yes"/>
      <point x="53" y="63"/>
      <point x="149" y="-20"/>
      <point x="301" y="-20" type="curve" smooth="yes"/>
      <point x="448" y="-20"/>
      <point x="548" y="64"/>
      <point x="548" y="185" type="curve" smooth="yes"/>
      <point x="548" y="500" type="line"/>
      <point x="358" y="500" type="line"/>
      <point x="358" y="241.794" type="line" smooth="yes"/>
      <point x="358" y="149.508"/>
      <point x="341" y="123"/>
      <point x="301" y="123" type="curve" smooth="yes"/>
      <point x="257" y="123"/>
      <point x="243" y="158.344"/>
      <point x="243" y="241.794" type="curve" smooth="yes"/>
      <point x="243" y="500" type="line"/>
    </contour>
  </outline>
</glyph>
<glyph name="y" format="2">
  <advance width="626"/>
  <unicode hex="0079"/>
  <anchor x="313" y="520" name="top"/>
  <anchor x="554" y="-79" name="bottom"/>
  <outline>
    <contour>
      <point x="383" y="279" type="line"/>
      <point x="383" y="169"/>
      <point x="338" y="135"/>
      <point x="303" y="135" type="curve" smooth="yes"/>
      <point x="263" y="135"/>
      <point x="244" y="180"/>
      <point x="244" y="283" type="curve" smooth="yes"/>
      <point x="244" y="500" type="line"/>
      <point x="54" y="500" type="line"/>
      <point x="54" y="216" type="line" smooth="yes"/>
      <point x="54" y="76"/>
      <point x="139" y="0"/>
      <point x="249" y="0" type="curve" smooth="yes"/>
      <point x="356" y="0"/>
      <point x="409" y="72"/>
      <point x="419" y="148" type="curve"/>
    </contour>
    <contour>
      <point x="48" y="-130" type="line"/>
      <point x="104" y="-186"/>
      <point x="175" y="-220"/>
      <point x="280" y="-220" type="curve" smooth="yes"/>
      <point x="460" y="-220"/>
      <point x="573" y="-120"/>
      <point x="573" y="52" type="curve" smooth="yes"/>
      <point x="573" y="500" type="line"/>
      <point x="383" y="500" type="line"/>
      <point x="383" y="70" type="line" smooth="yes"/>
      <point x="383" y="-47"/>
      <point x="332" y="-90"/>
      <point x="260" y="-90" type="curve" smooth="yes"/>
      <point x="212" y="-90"/>
      <point x="162" y="-71"/>
      <point x="136" y="-42" type="curve"/>
    </contour>
  </outline>
</glyph>
<glyph name="braceright" format="2">
  <advance width="366"/>
  <unicode hex="007D"/>
  <outline>
    <contour>
      <point x="52" y="-336" type="line"/>
      <point x="188" y="-268.35"/>
      <point x="254" y="-174.229"/>
      <point x="254" y="-75.2055" type="curve" smooth="yes"/>
      <point x="254" y="165" type="line" smooth="yes"/>
      <point x="254" y="236"/>
      <point x="312" y="272"/>
      <point x="344" y="282" type="curve"/>
      <point x="344" y="299" type="line"/>
      <point x="292" y="310"/>
      <point x="254" y="372"/>
      <point x="254" y="422" type="curve" smooth="yes"/>
      <point x="254" y="604.027" type="line" smooth="yes"/>
      <point x="254" y="700.154"/>
      <point x="188" y="803.439"/>
      <point x="52" y="874" type="curve"/>
      <point x="28" y="811" type="line"/>
      <point x="70" y="779.167"/>
      <point x="98" y="732.957"/>
      <point x="98" y="609.731" type="curve" smooth="yes"/>
      <point x="98" y="429" type="line" smooth="yes"/>
      <point x="98" y="365"/>
      <point x="120" y="315"/>
      <point x="224" y="289" type="curve"/>
      <point x="117" y="261"/>
      <point x="98" y="203"/>
      <point x="98" y="139" type="curve" smooth="yes"/>
      <point x="98" y="-82.6208" type="line" smooth="yes"/>
      <point x="98" y="-201.73"/>
      <point x="70" y="-242.735"/>
      <point x="28" y="-273" type="curve"/>
    </contour>
  </outline>
</glyph>
<glyph name="cent" format="2">
  <advance width="563"/>
  <unicode hex="00A2"/>
  <outline>
    <contour>
      <point x="269" y="610" type="line"/>
      <point x="319" y="610" type="line"/>
      <point x="319" y="730" type="line"/>
      <point x="269" y="730" type="line"/>
    </contour>
    <contour>
      <point x="270" y="-31" type="line"/>
      <point x="318" y="-31" type="line"/>
      <point x="318" y="90" type="line"/>
      <point x="270" y="89" type="line"/>
    </contour>
    <contour>
      <point x="426.235" y="267.765" type="line"/>
      <point x="396" y="237.124"/>
      <point x="355" y="220"/>
      <point x="312" y="220" type="curve" smooth="yes"/>
      <point x="246" y="220"/>
      <point x="219" y="263.643"/>
      <point x="219" y="350.929" type="curve" smooth="yes"/>
      <point x="219" y="437.286"/>
      <point x="242" y="480"/>
      <point x="317" y="480" type="curve" smooth="yes"/>
      <point x="361" y="480"/>
      <point x="388.883" y="465.179"/>
      <point x="423" y="432" type="curve"/>
      <point x="521" y="530" type="line"/>
      <point x="465" y="586"/>
      <point x="395" y="620"/>
      <point x="292" y="620" type="curve" smooth="yes"/>
      <point x="129" y="620"/>
      <point x="29" y="521"/>
      <point x="29" y="355" type="curve" smooth="yes"/>
      <point x="29" y="179"/>
      <point x="130" y="80"/>
      <point x="292" y="80" type="curve" smooth="yes"/>
      <point x="397" y="80"/>
      <point x="468" y="114"/>
      <point x="524" y="170" type="curve"/>
    </contour>
  </outline>
</glyph>
<glyph name="sterling" format="2">
  <advance width="634"/>
  <unicode hex="00A3"/>
  <outline>
    <contour>
      <point x="21" y="279" type="line"/>
      <point x="148.38" y="279" type="line"/>
      <point x="156.54" y="258.12"/>
      <point x="162" y="235.7"/>
      <point x="162" y="210" type="curve" smooth="yes"/>
      <point x="162" y="130"/>
      <point x="110" y="86"/>
      <point x="50" y="46" type="curve"/>
      <point x="50" y="-44" type="line"/>
      <point x="109" y="32"/>
      <point x="144" y="50"/>
      <point x="182" y="50" type="curve" smooth="yes"/>
      <point x="261" y="50"/>
      <point x="272" y="-26"/>
      <point x="400" y="-26" type="curve" smooth="yes"/>
      <point x="504" y="-26"/>
      <point x="585" y="24"/>
      <point x="614" y="104" type="curve"/>
      <point x="584" y="154" type="line"/>
      <point x="556" y="118"/>
      <point x="509" y="91"/>
      <point x="458" y="91" type="curve" smooth="yes"/>
      <point x="377" y="91"/>
      <point x="415" y="157"/>
      <point x="329" y="157" type="curve"/>
      <point x="344" y="180"/>
      <point x="352" y="191"/>
      <point x="352" y="224" type="curve" smooth="yes"/>
      <point x="352" y="243.51"/>
      <point x="349.11" y="261.74"/>
      <point x="344.29" y="279" type="curve"/>
      <point x="495" y="279" type="line"/>
      <point x="495" y="379" type="line"/>
      <point x="296.66" y="379" type="line"/>
      <point x="271.82" y="420.75"/>
      <point x="248" y="459.97"/>
      <point x="248" y="504" type="curve" smooth="yes"/>
      <point x="248" y="551"/>
      <point x="276" y="579"/>
      <point x="330" y="579" type="curve" smooth="yes"/>
      <point x="372" y="579"/>
      <point x="419" y="562"/>
      <point x="477" y="493" type="curve"/>
      <point x="583" y="599" type="line"/>
      <point x="505" y="689"/>
      <point x="415" y="720"/>
      <point x="316" y="720" type="curve" smooth="yes"/>
      <point x="153" y="720"/>
      <point x="57" y="637"/>
      <point x="57" y="520" type="curve" smooth="yes"/>
      <point x="57" y="472.45"/>
      <point x="73.13" y="426.92"/>
      <point x="97.13" y="379" type="curve"/>
      <point x="21" y="379" type="line"/>
    </contour>
  </outline>
</glyph>
<glyph name="ordfeminine" format="2">
  <advance width="549"/>
  <unicode hex="00AA"/>
  <outline>
    <contour>
      <point x="359" y="335" type="line"/>
      <point x="491" y="335" type="line"/>
      <point x="491" y="702" type="line"/>
      <point x="359" y="702" type="line"/>
    </contour>
    <contour>
      <point x="235" y="320" type="curve" smooth="yes"/>
      <point x="347" y="320"/>
      <point x="386" y="416"/>
      <point x="386" y="520" type="curve" smooth="yes"/>
      <point x="386" y="624"/>
      <point x="347" y="720"/>
      <point x="234" y="720" type="curve" smooth="yes"/>
      <point x="129" y="720"/>
      <point x="58" y="636"/>
      <point x="58" y="522" type="curve" smooth="yes"/>
      <point x="58" y="408"/>
      <point x="128" y="320"/>
    </contour>
    <contour>
      <point x="276" y="415" type="curve" smooth="yes"/>
      <point x="222" y="415"/>
      <point x="190" y="456"/>
      <point x="190" y="521" type="curve" smooth="yes"/>
      <point x="190" y="585"/>
      <point x="222" y="624"/>
      <point x="276" y="624" type="curve" smooth="yes"/>
      <point x="330" y="624"/>
      <point x="359" y="586"/>
      <point x="359" y="521" type="curve" smooth="yes"/>
      <point x="359" y="455"/>
      <point x="329" y="415"/>
    </contour>
  </outline>
</glyph>
<glyph name="softhyphen" format="2">
  <advance width="464"/>
  <unicode hex="00AD"/>
  <outline>
    <contour>
      <point x="50" y="262" type="line"/>
      <point x="414" y="262" type="line"/>
      <point x="414" y="296" type="line"/>
      <point x="50" y="296" type="line"/>
    </contour>
  </outline>
</glyph>
<glyph name="AE" format="2">
  <advance width="880"/>
  <unicode hex="00C6"/>
  <anchor x="480" y="719" name="top"/>
  <anchor x="480" y="-20" name="bottom"/>
  <outline>
    <contour>
      <point x="398" y="0" type="line"/>
      <point x="835" y="0" type="line"/>
      <point x="835" y="140" type="line"/>
      <point x="588" y="140" type="line"/>
      <point x="588" y="297" type="line"/>
      <point x="795" y="297" type="line"/>
      <point x="795" y="437" type="line"/>
      <point x="588" y="437" type="line"/>
      <point x="588" y="560" type="line"/>
      <point x="820" y="560" type="line"/>
      <point x="820" y="700" type="line"/>
      <point x="398" y="700" type="line"/>
    </contour>
    <contour>
      <point x="256" y="560" type="line"/>
      <point x="542" y="560" type="line"/>
      <point x="543" y="700" type="line"/>
      <point x="300" y="700" type="line"/>
    </contour>
    <contour>
      <point x="193" y="106" type="line"/>
      <point x="533" y="106" type="line"/>
      <point x="489" y="246" type="line"/>
      <point x="237" y="246" type="line"/>
    </contour>
    <contour>
      <point x="-3" y="0" type="line"/>
      <point x="196" y="0" type="line"/>
      <point x="397" y="700" type="line"/>
      <point x="224" y="700" type="line"/>
    </contour>
  </outline>
</glyph>
<glyph name="ccedilla" format="2">
  <advance width="563"/>
  <unicode hex="00E7"/>
  <anchor x="303" y="520" name="top"/>
  <anchor x="283" y="-218" name="bottom"/>
  <outline>
    <contour>
      <point x="426.235" y="167.765" type="line"/>
      <point x="396" y="137.124"/>
      <point x="355" y="120"/>
      <point x="312" y="120" type="curve" smooth="yes"/>
      <point x="246" y="120"/>
      <point x="219" y="163.643"/>
      <point x="219" y="250.929" type="curve" smooth="yes"/>
      <point x="219" y="337.286"/>
      <point x="242" y="380"/>
      <point x="317" y="380" type="curve" smooth="yes"/>
      <point x="361" y="380"/>
      <point x="388.883" y="365.179"/>
      <point x="423" y="332" type="curve"/>
      <point x="521" y="430" type="line"/>
      <point x="465" y="486"/>
      <point x="395" y="520"/>
      <point x="292" y="520" type="curve" smooth="yes"/>
      <point x="129" y="520"/>
      <point x="29" y="421"/>
      <point x="29" y="255" type="curve" smooth="yes"/>
      <point x="29" y="79"/>
      <point x="130" y="-20"/>
      <point x="292" y="-20" type="curve" smooth="yes"/>
      <point x="397" y="-20"/>
      <point x="468" y="14"/>
      <point x="524" y="70" type="curve"/>
    </contour>
    <contour>
      <point x="151" y="-205" type="line"/>
      <point x="173" y="-211"/>
      <point x="206" y="-218"/>
      <point x="259" y="-218" type="curve" smooth="yes"/>
      <point x="362" y="-218"/>
      <point x="411" y="-191"/>
      <point x="411" y="-134" type="curve" smooth="yes"/>
      <point x="411" y="-87"/>
      <point x="378" y="-64"/>
      <point x="310" y="-64" type="curve"/>
      <point x="357.423" y="20.4105" type="line"/>
      <point x="255.423" y="20.4105" type="line"/>
      <point x="187" y="-109" type="line"/>
      <point x="203" y="-107"/>
      <point x="228" y="-105"/>
      <point x="245" y="-105" type="curve" smooth="yes"/>
      <point x="275" y="-105"/>
      <point x="291" y="-111"/>
      <point x="291" y="-133" type="curve" smooth="yes"/>
      <point x="291" y="-151"/>
      <point x="280" y="-164"/>
      <point x="243" y="-164" type="curve" smooth="yes"/>
      <point x="222" y="-164"/>
      <point x="193" y="-160"/>
      <point x="177" y="-154" type="curve"/>
    </contour>
  </outline>
</glyph>
<glyph name="Hbar" format="2">
  <advance width="737"/>
  <unicode hex="0126"/>
  <outline>
    <contour>
      <point x="69" y="0" type="line"/>
      <point x="259" y="0" type="line"/>
      <point x="259" y="300" type="line"/>
      <point x="479" y="300" type="line"/>
      <point x="479" y="0" type="line"/>
      <point x="669" y="0" type="line"/>
      <point x="669" y="700" type="line"/>
      <point x="479" y="700" type="line"/>
      <point x="479" y="440" type="line"/>
      <point x="259" y="440" type="line"/>
      <point x="259" y="700" type="line"/>
      <point x="69" y="700" type="line"/>
    </contour>
    <contour>
      <point x="0.269999" y="514" type="line"/>
      <point x="737.266" y="514" type="line"/>
      <point x="737.266" y="548" type="line"/>
      <point x="0.269999" y="548" type="line"/>
    </contour>
  </outline>
</glyph>
<glyph name="lslash" format="2">
  <advance width="350"/>
  <unicode hex="0142"/>
  <outline>
    <contour>
      <point x="319" y="133" type="line"/>
      <point x="300" y="123.25"/>
      <point x="290" y="120"/>
      <point x="280" y="120" type="curve" smooth="yes"/>
      <point x="255" y="120"/>
      <point x="244" y="141.033"/>
      <point x="244" y="207.138" type="curve" smooth="yes"/>
      <point x="244" y="750" type="line"/>
      <point x="54" y="750" type="line"/>
      <point x="54" y="132" type="line" smooth="yes"/>
      <point x="54" y="26"/>
      <point x="104" y="-20"/>
      <point x="220" y="-20" type="curve" smooth="yes"/>
      <point x="268" y="-20"/>
      <point x="299" y="-12"/>
      <point x="346" y="3" type="curve"/>
    </contour>
    <contour>
      <point x="-6" y="242" type="line"/>
      <point x="334" y="474" type="line"/>
      <point x="334" y="515" type="line"/>
      <point x="-6" y="283" type="line"/>
    </contour>
  </outline>
</glyph>
<glyph name="commaaccentcomb" format="2">
  <advance width="246"/>
  <unicode hex="0326"/>
  <anchor x="123" y="-248" name="bottom"/>
  <anchor x="123" y="0" name="_bottom"/>
  <outline>
    <contour>
      <point x="84" y="-277" type="line"/>
      <point x="150" y="-258.919"/>
      <point x="194" y="-195.637"/>
      <point x="194" y="-132.354" type="curve" smooth="yes"/>
      <point x="194" y="-89.1614"/>
      <point x="173" y="-53"/>
      <point x="121" y="-53" type="curve" smooth="yes"/>
      <point x="80" y="-53"/>
      <point x="52" y="-75.1849"/>
      <point x="52" y="-113.504" type="curve" smooth="yes"/>
      <point x="52" y="-151.824"/>
      <point x="80" y="-173"/>
      <point x="111" y="-173" type="curve" smooth="yes"/>
      <point x="123" y="-173"/>
      <point x="136" y="-170"/>
      <point x="138" y="-166" type="curve"/>
      <point x="135" y="-199"/>
      <point x="97" y="-227"/>
      <point x="63" y="-244" type="curve"/>
    </contour>
  </outline>
</glyph>
<glyph name="cedillacomb" format="2">
  <advance width="302"/>
  <unicode hex="0327"/>
  <anchor x="171" y="-10" name="_bottom"/>
  <anchor x="151" y="-208" name="bottom"/>
  <outline>
    <contour>
      <point x="19" y="-195" type="line"/>
      <point x="41" y="-201"/>
      <point x="74" y="-208"/>
      <point x="127" y="-208" type="curve" smooth="yes"/>
      <point x="230" y="-208"/>
      <point x="279" y="-181"/>
      <point x="279" y="-124" type="curve" smooth="yes"/>
      <point x="279" y="-77"/>
      <point x="246" y="-54"/>
      <point x="178" y="-54" type="curve"/>
      <point x="225.423" y="30.4105" type="line"/>
      <point x="123.423" y="30.4105" type="line"/>
      <point x="55" y="-99" type="line"/>
      <point x="71" y="-97"/>
      <point x="96" y="-95"/>
      <point x="113" y="-95" type="curve" smooth="yes"/>
      <point x="143" y="-95"/>
      <point x="159" y="-101"/>
      <point x="159" y="-123" type="curve" smooth="yes"/>
      <point x="159" y="-141"/>
      <point x="148" y="-154"/>
      <point x="111" y="-154" type="curve" smooth="yes"/>
      <point x="90" y="-154"/>
      <point x="61" y="-150"/>
      <point x="45" y="-144" type="curve"/>
    </contour>
  </outline>
</glyph>
<glyph name="lownumeralsign" format="2">
  <advance width="241"/>
  <unicode hex="0375"/>
  <outline>
    <contour>
      <point x="3" y="-149" type="line"/>
      <point x="154" y="-149" type="line"/>
      <point x="233" y="68" type="line"/>
      <point x="124" y="68" type="line"/>
    </contour>
  </outline>
</glyph>
<glyph name="Delta" format="2">
  <advance width="655"/>
  <unicode hex="0394"/>
  <outline>
    <contour>
      <point x="183" y="0" type="line"/>
      <point x="469" y="0" type="line"/>
      <point x="425" y="140" type="line"/>
      <point x="227" y="140" type="line"/>
    </contour>
    <contour>
      <point x="-3" y="0" type="line"/>
      <point x="196" y="0" type="line"/>
      <point x="397" y="700" type="line"/>
      <point x="224" y="700" type="line"/>
    </contour>
    <contour>
      <point x="459" y="0" type="line"/>
      <point x="658" y="0" type="line"/>
      <point x="431" y="700" type="line"/>
      <point x="258" y="700" type="line"/>
    </contour>
  </outline>
</glyph>
<glyph name="Sigma" format="2">
  <advance width="570"/>
  <unicode hex="03A3"/>
  <outline>
    <contour>
      <point x="31" y="0" type="line"/>
      <point x="528" y="0" type="line"/>
      <point x="528" y="140" type="line"/>
      <point x="284" y="140" type="line"/>
      <point x="473" y="350" type="line"/>
      <point x="284" y="560" type="line"/>
      <point x="528" y="560" type="line"/>
      <point x="528" y="700" type="line"/>
      <point x="31" y="700" type="line"/>
      <point x="31" y="580" type="line"/>
      <point x="238" y="350" type="line"/>
      <point x="31" y="120" type="line"/>
    </contour>
  </outline>
</glyph>
<glyph name="alpha" format="2">
  <advance width="673"/>
  <unicode hex="03B1"/>
  <anchor x="310" y="520" name="topgr"/>
  <outline>
    <contour>
      <point x="431" y="0" type="line"/>
      <point x="431" y="64.4724"/>
      <point x="431.94" y="157.378"/>
      <point x="419.125" y="236" type="curve" smooth="yes"/>
      <point x="405.505" y="319.569"/>
      <point x="376.345" y="387"/>
      <point x="314" y="387" type="curve" smooth="yes"/>
      <point x="264" y="387"/>
      <point x="239" y="343"/>
      <point x="239" y="249" type="curve" smooth="yes"/>
      <point x="239" y="156"/>
      <point x="263" y="114"/>
      <point x="311" y="114" type="curve" smooth="yes"/>
      <point x="377.155" y="114"/>
      <point x="406.535" y="191.499"/>
      <point x="419.582" y="282.998" type="curve" smooth="yes"/>
      <point x="430.201" y="357.471"/>
      <point x="430" y="441.219"/>
      <point x="430" y="500" type="curve"/>
      <point x="620" y="500" type="line"/>
      <point x="620" y="428.136"/>
      <point x="603.455" y="350.167"/>
      <point x="574.847" y="277" type="curve" smooth="yes"/>
      <point x="512.293" y="117.017"/>
      <point x="392.061" y="-20"/>
      <point x="261" y="-20" type="curve" smooth="yes"/>
      <point x="147" y="-20"/>
      <point x="49" y="84"/>
      <point x="49" y="253" type="curve" smooth="yes"/>
      <point x="49" y="417"/>
      <point x="141" y="520"/>
      <point x="263" y="520" type="curve" smooth="yes"/>
      <point x="364.321" y="520"/>
      <point x="451.642" y="448.577"/>
      <point x="514.561" y="350" type="curve" smooth="yes"/>
      <point x="580.806" y="246.211"/>
      <point x="620" y="112.321"/>
      <point x="620" y="0" type="curve"/>
    </contour>
  </outline>
</glyph>
<glyph name="iota" format="2">
  <advance width="310"/>
  <unicode hex="03B9"/>
  <anchor x="147" y="520" name="topgr"/>
  <outline>
    <contour>
      <point x="299" y="0" type="line"/>
      <point x="226" y="0" type="line" smooth="yes"/>
      <point x="107" y="0"/>
      <point x="53" y="47"/>
      <point x="53" y="153" type="curve" smooth="yes"/>
      <point x="53" y="500" type="line"/>
      <point x="243" y="500" type="line"/>
      <point x="243" y="210" type="line" smooth="yes"/>
      <point x="243" y="148"/>
      <point x="262" y="133"/>
      <point x="299" y="133" type="curve"/>
    </contour>
  </outline>
</glyph>
<glyph name="xi" format="2">
  <advance width="529"/>
  <unicode hex="03BE"/>
  <outline>
    <contour>
      <point x="62" y="570" type="line"/>
      <point x="62" y="700" type="line"/>
      <point x="435" y="700" type="line"/>
      <point x="435" y="570" type="line"/>
    </contour>
    <contour>
      <point x="295" y="-200" type="line"/>
      <point x="319" y="-165"/>
      <point x="339" y="-142"/>
      <point x="339" y="-99" type="curve" smooth="yes"/>
      <point x="339" y="-49"/>
      <point x="310.818" y="-20"/>
      <point x="235.667" y="-20" type="curve" smooth="yes"/>
      <point x="111.458" y="-20"/>
      <point x="29" y="50.4416"/>
      <point x="29" y="156.984" type="curve" smooth="yes"/>
      <point x="29" y="258.244"/>
      <point x="95" y="319"/>
      <point x="227" y="324" type="curve"/>
      <point x="114" y="342"/>
      <point x="65" y="384.414"/>
      <point x="65" y="455.793" type="curve" smooth="yes"/>
      <point x="65" y="591.31"/>
      <point x="278" y="642"/>
      <point x="418" y="642" type="curve"/>
      <point x="434" y="570" type="line"/>
      <point x="322" y="570"/>
      <point x="255" y="535.192"/>
      <point x="255" y="473.533" type="curve" smooth="yes"/>
      <point x="255" y="416.846"/>
      <point x="311" y="389"/>
      <point x="433" y="386" type="curve"/>
      <point x="433" y="256" type="line"/>
      <point x="297" y="256"/>
      <point x="218" y="223.335"/>
      <point x="218" y="166.769" type="curve" smooth="yes"/>
      <point x="218" y="130.121"/>
      <point x="255" y="111"/>
      <point x="323" y="111" type="curve" smooth="yes"/>
      <point x="449" y="111"/>
      <point x="516" y="34"/>
      <point x="516" y="-62" type="curve" smooth="yes"/>
      <point x="516" y="-127"/>
      <point x="487.667" y="-176"/>
      <point x="466.889" y="-200" type="curve"/>
    </contour>
  </outline>
</glyph>
<glyph name="rho" format="2">
  <advance width="630"/>
  <unicode hex="03C1"/>
  <anchor x="322" y="520" name="topgr"/>
  <outline>
    <contour>
      <point x="60" y="-200" type="line"/>
      <point x="250" y="-200" type="line"/>
      <point x="250" y="274" type="line"/>
      <point x="60" y="251" type="line"/>
    </contour>
    <contour>
      <point x="76" y="250" type="line"/>
      <point x="108" y="236"/>
      <point x="144" y="205"/>
      <point x="168" y="192" type="curve"/>
      <point x="160" y="104"/>
      <point x="217" y="-20"/>
      <point x="356" y="-20" type="curve" smooth="yes"/>
      <point x="488" y="-20"/>
      <point x="588" y="93"/>
      <point x="588" y="253" type="curve" smooth="yes"/>
      <point x="588" y="416"/>
      <point x="484" y="520"/>
      <point x="328" y="520" type="curve" smooth="yes"/>
      <point x="167" y="520"/>
      <point x="60" y="421"/>
      <point x="60" y="247" type="curve"/>
    </contour>
    <contour>
      <point x="324" y="117" type="curve" smooth="yes"/>
      <point x="274" y="117"/>
      <point x="250" y="168.669"/>
      <point x="250" y="254.784" type="curve" smooth="yes"/>
      <point x="250" y="339.942"/>
      <point x="274" y="383"/>
      <point x="321" y="383" type="curve" smooth="yes"/>
      <point x="371" y="383"/>
      <point x="398" y="336.115"/>
      <point x="398" y="250" type="curve" smooth="yes"/>
      <point x="398" y="165.799"/>
      <point x="372" y="117"/>
    </contour>
  </outline>
</glyph>
<glyph name="sigma" format="2">
  <advance width="648"/>
  <unicode hex="03C3"/>
  <anchor x="420" y="-3" name="ogonek"/>
  <anchor x="308" y="-20" name="bottom"/>
  <anchor x="308" y="520" name="topgr"/>
  <outline>
    <contour>
      <point x="39" y="244.815" type="curve" smooth="yes"/>
      <point x="39" y="75.3333"/>
      <point x="146" y="-20"/>
      <point x="308" y="-20" type="curve" smooth="yes"/>
      <point x="482" y="-20"/>
      <point x="577" y="75.3333"/>
      <point x="577" y="244.815" type="curve" smooth="yes"/>
      <point x="577" y="404.667"/>
      <point x="481" y="500"/>
      <point x="308" y="500" type="curve" smooth="yes"/>
      <point x="145" y="500"/>
      <point x="39" y="404.667"/>
    </contour>
    <contour>
      <point x="308" y="114.815" type="curve" smooth="yes"/>
      <point x="255" y="114.815"/>
      <point x="229" y="156.841"/>
      <point x="229" y="240.894" type="curve" smooth="yes"/>
      <point x="229" y="324.053"/>
      <point x="254" y="365.185"/>
      <point x="308" y="365.185" type="curve" smooth="yes"/>
      <point x="360" y="365.185"/>
      <point x="387" y="325.841"/>
      <point x="387" y="241.788" type="curve" smooth="yes"/>
      <point x="387" y="156.841"/>
      <point x="360" y="114.815"/>
    </contour>
    <contour>
      <point x="344" y="370" type="line"/>
      <point x="645" y="370" type="line"/>
      <point x="645" y="500" type="line"/>
      <point x="304" y="500" type="line"/>
    </contour>
  </outline>
</glyph>
<glyph name="tau" format="2">
  <advance width="421"/>
  <unicode hex="03C4"/>
  <anchor x="210" y="520" name="topgr"/>
  <outline>
    <contour>
      <point x="22" y="370" type="line"/>
      <point x="392" y="370" type="line"/>
      <point x="392" y="500" type="line"/>
      <point x="22" y="500" type="line"/>
    </contour>
    <contour>
      <point x="351" y="133" type="line"/>
      <point x="314" y="133"/>
      <point x="295" y="148"/>
      <point x="295" y="210" type="curve" smooth="yes"/>
      <point x="295" y="500" type="line"/>
      <point x="105" y="500" type="line"/>
      <point x="105" y="153" type="line" smooth="yes"/>
      <point x="105" y="47"/>
      <point x="159" y="0"/>
      <point x="278" y="0" type="curve" smooth="yes"/>
      <point x="351" y="0" type="line"/>
    </contour>
  </outline>
</glyph>
<glyph name="Kaisymbol" format="2">
  <advance width="670"/>
  <unicode hex="03CF"/>
  <outline>
    <contour>
      <point x="49" y="-133" type="line"/>
      <point x="107" y="-187"/>
      <point x="209" y="-220"/>
      <point x="330" y="-220" type="curve" smooth="yes"/>
      <point x="530" y="-220"/>
      <point x="669" y="-131"/>
      <point x="669" y="0" type="curve"/>
      <point x="550" y="17" type="line"/>
      <point x="450" y="0" type="line"/>
      <point x="450" y="-51"/>
      <point x="419" y="-80"/>
      <point x="307" y="-80" type="curve" smooth="yes"/>
      <point x="209" y="-80"/>
      <point x="118" y="-58"/>
      <point x="49" y="-9" type="curve"/>
    </contour>
    <contour>
      <point x="48" y="0" type="line"/>
      <point x="238" y="0" type="line"/>
      <point x="238" y="700" type="line"/>
      <point x="48" y="700" type="line"/>
    </contour>
    <contour>
      <point x="119" y="282" type="line"/>
      <point x="294" y="282" type="line"/>
      <point x="450" y="0" type="line"/>
      <point x="669" y="0" type="line"/>
      <point x="457" y="367" type="line"/>
      <point x="665" y="700" type="line"/>
      <point x="464" y="700" type="line"/>
      <point x="306" y="426" type="line"/>
      <point x="130" y="426" type="line"/>
    </contour>
  </outline>
</glyph>
<glyph name="Ljecyr" format="2">
  <advance width="1014"/>
  <unicode hex="0409"/>
  <outline>
    <contour>
      <point x="31" y="9" type="line"/>
      <point x="72" y="-9"/>
      <point x="108" y="-20"/>
      <point x="169" y="-20" type="curve" smooth="yes"/>
      <point x="307.454" y="-20"/>
      <point x="353.116" y="37.7377"/>
      <point x="364.681" y="340.128" type="curve" smooth="yes"/>
      <point x="367.065" y="402.473"/>
      <point x="368" y="475.218"/>
      <point x="368" y="560" type="curve"/>
      <point x="472" y="560" type="line"/>
      <point x="472" y="0" type="line"/>
      <point x="725" y="0" type="line" smooth="yes"/>
      <point x="914" y="0"/>
      <point x="975" y="104.39"/>
      <point x="975" y="232.805" type="curve" smooth="yes"/>
      <point x="975" y="360.122"/>
      <point x="914" y="450"/>
      <point x="725" y="450" type="curve" smooth="yes"/>
      <point x="662" y="450" type="line"/>
      <point x="662" y="700" type="line"/>
      <point x="180" y="700" type="line"/>
      <point x="180" y="614.462"/>
      <point x="179.78" y="541.188"/>
      <point x="179.114" y="478.516" type="curve" smooth="yes"/>
      <point x="176.015" y="187.3"/>
      <point x="163.26" y="125"/>
      <point x="118" y="125" type="curve" smooth="yes"/>
      <point x="99" y="125"/>
      <point x="77" y="136"/>
      <point x="61" y="150" type="curve"/>
    </contour>
    <contour>
      <point x="662" y="140" type="line"/>
      <point x="662" y="310" type="line"/>
      <point x="673" y="310" type="line" smooth="yes"/>
      <point x="763" y="310"/>
      <point x="785" y="281.231"/>
      <point x="785" y="223.692" type="curve" smooth="yes"/>
      <point x="785" y="160.923"/>
      <point x="758" y="140"/>
      <point x="673" y="140" type="curve" smooth="yes"/>
    </contour>
  </outline>
</glyph>
<glyph name="Elcyr" format="2">
  <advance width="760"/>
  <unicode hex="041B"/>
  <outline>
    <contour>
      <point x="31" y="9" type="line"/>
      <point x="72" y="-9"/>
      <point x="108" y="-20"/>
      <point x="169" y="-20" type="curve" smooth="yes"/>
      <point x="336" y="-20"/>
      <point x="370" y="64"/>
      <point x="370" y="560" type="curve"/>
      <point x="502" y="560" type="line"/>
      <point x="502" y="0" type="line"/>
      <point x="692" y="0" type="line"/>
      <point x="692" y="700" type="line"/>
      <point x="180" y="700" type="line"/>
      <point x="180" y="197"/>
      <point x="173" y="125"/>
      <point x="118" y="125" type="curve" smooth="yes"/>
      <point x="99" y="125"/>
      <point x="77" y="136"/>
      <point x="61" y="150" type="curve"/>
    </contour>
  </outline>
</glyph>
<glyph name="Shacyr" format="2">
  <advance width="970"/>
  <unicode hex="0428"/>
  <outline>
    <contour>
      <point x="68" y="0" type="line"/>
      <point x="902" y="0" type="line"/>
      <point x="902" y="700" type="line"/>
      <point x="712" y="700" type="line"/>
      <point x="712" y="140" type="line"/>
      <point x="580" y="140" type="line"/>
      <point x="580" y="700" type="line"/>
      <point x="390" y="700" type="line"/>
      <point x="390" y="140" type="line"/>
      <point x="258" y="140" type="line"/>
      <point x="258" y="700" type="line"/>
      <point x="68" y="700" type="line"/>
    </contour>
  </outline>
</glyph>
<glyph name="Shchacyr" format="2">
  <advance width="1060"/>
  <unicode hex="0429"/>
  <outline>
    <contour>
      <point x="68" y="0" type="line"/>
      <point x="68" y="700" type="line"/>
      <point x="259" y="700" type="line"/>
      <point x="259" y="140" type="line"/>
      <point x="392" y="140" type="line"/>
      <point x="392" y="700" type="line"/>
      <point x="582" y="700" type="line"/>
      <point x="582" y="140" type="line"/>
      <point x="715" y="140" type="line"/>
      <point x="715" y="700" type="line"/>
      <point x="906" y="700" type="line"/>
      <point x="906" y="140" type="line"/>
      <point x="1006" y="140"/>
      <point x="1039" y="112"/>
      <point x="1039" y="-140" type="curve"/>
      <point x="894" y="-140" type="line"/>
      <point x="894" y="-42"/>
      <point x="902" y="0"/>
      <point x="831" y="0" type="curve" smooth="yes"/>
    </contour>
  </outline>
</glyph>
<glyph name="Softcyr" format="2">
  <advance width="633"/>
  <unicode hex="042C"/>
  <outline>
    <contour>
      <point x="68" y="0" type="line"/>
      <point x="343" y="0" type="line" smooth="yes"/>
      <point x="504" y="0"/>
      <point x="594" y="93"/>
      <point x="594" y="224" type="curve" smooth="yes"/>
      <point x="594" y="354"/>
      <point x="504" y="449"/>
      <point x="343" y="449" type="curve" smooth="yes"/>
      <point x="259" y="449" type="line"/>
      <point x="259" y="700" type="line"/>
      <point x="68" y="700" type="line"/>
    </contour>
    <contour>
      <point x="259" y="140" type="line"/>
      <point x="259" y="308" type="line"/>
      <point x="284" y="308" type="line" smooth="yes"/>
      <point x="356" y="308"/>
      <point x="403" y="298"/>
      <point x="403" y="232" type="curve" smooth="yes"/>
      <point x="403" y="165"/>
      <point x="356" y="140"/>
      <point x="284" y="140" type="curve" smooth="yes"/>
    </contour>
  </outline>
</glyph>
<glyph name="vecyr" format="2">
  <advance width="546"/>
  <unicode hex="0432"/>
  <anchor x="273" y="520" name="top"/>
  <anchor x="273" y="-20" name="bottom"/>
  <outline>
    <contour>
      <point x="53" y="0" type="line"/>
      <point x="313" y="0" type="line" smooth="yes"/>
      <point x="423" y="0"/>
      <point x="504" y="61"/>
      <point x="504" y="151" type="curve" smooth="yes"/>
      <point x="504" y="226"/>
      <point x="449" y="262"/>
      <point x="347" y="265" type="curve"/>
      <point x="435" y="283"/>
      <point x="476" y="314"/>
      <point x="476" y="384" type="curve" smooth="yes"/>
      <point x="476" y="465"/>
      <point x="421" y="500"/>
      <point x="287" y="500" type="curve" smooth="yes"/>
      <point x="53" y="500" type="line"/>
    </contour>
    <contour>
      <point x="243" y="130" type="line"/>
      <point x="243" y="202" type="line"/>
      <point x="276" y="202" type="line" smooth="yes"/>
      <point x="306" y="202"/>
      <point x="322" y="188"/>
      <point x="322" y="168" type="curve" smooth="yes"/>
      <point x="322" y="148"/>
      <point x="306" y="130"/>
      <point x="276" y="130" type="curve" smooth="yes"/>
    </contour>
    <contour>
      <point x="243" y="302" type="line"/>
      <point x="243" y="370" type="line"/>
      <point x="259" y="370" type="line" smooth="yes"/>
      <point x="277" y="370"/>
      <point x="295" y="357.82"/>
      <point x="295" y="334.47" type="curve" smooth="yes"/>
      <point x="295" y="313.16"/>
      <point x="279" y="302"/>
      <point x="258" y="302" type="curve" smooth="yes"/>
    </contour>
  </outline>
</glyph>
<glyph name="pecyr" format="2">
  <advance width="618"/>
  <unicode hex="043F"/>
  <anchor x="309" y="-20" name="bottom"/>
  <anchor x="309" y="520" name="top"/>
  <outline>
    <contour>
      <point x="53" y="0" type="line"/>
      <point x="243" y="0" type="line"/>
      <point x="243" y="370" type="line"/>
      <point x="376" y="370" type="line"/>
      <point x="376" y="0" type="line"/>
      <point x="566" y="0" type="line"/>
      <point x="566" y="500" type="line"/>
      <point x="53" y="500" type="line"/>
    </contour>
  </outline>
</glyph>
<glyph name="efcyr" format="2">
  <advance width="844"/>
  <unicode hex="0444"/>
  <outline>
    <contour>
      <point x="327" y="-200" type="line"/>
      <point x="516" y="-200" type="line"/>
      <point x="516" y="750" type="line"/>
      <point x="327" y="750" type="line"/>
    </contour>
    <contour>
      <point x="446" y="158" type="line"/>
      <point x="420" y="129"/>
      <point x="365" y="110"/>
      <point x="322" y="110" type="curve" smooth="yes"/>
      <point x="256" y="110"/>
      <point x="229" y="157"/>
      <point x="229" y="251" type="curve" smooth="yes"/>
      <point x="229" y="344"/>
      <point x="252" y="390"/>
      <point x="327" y="390" type="curve" smooth="yes"/>
      <point x="371" y="390"/>
      <point x="417" y="371"/>
      <point x="443" y="342" type="curve"/>
      <point x="531" y="430" type="line"/>
      <point x="475" y="486"/>
      <point x="405" y="520"/>
      <point x="302" y="520" type="curve" smooth="yes"/>
      <point x="139" y="520"/>
      <point x="39" y="421"/>
      <point x="39" y="255" type="curve" smooth="yes"/>
      <point x="39" y="79"/>
      <point x="140" y="-20"/>
      <point x="302" y="-20" type="curve" smooth="yes"/>
      <point x="407" y="-20"/>
      <point x="478" y="14"/>
      <point x="534" y="70" type="curve"/>
    </contour>
    <contour>
      <point x="310" y="70" type="line"/>
      <point x="366" y="14"/>
      <point x="437" y="-20"/>
      <point x="542" y="-20" type="curve" smooth="yes"/>
      <point x="704" y="-20"/>
      <point x="805" y="79"/>
      <point x="805" y="255" type="curve" smooth="yes"/>
      <point x="805" y="421"/>
      <point x="705" y="520"/>
      <point x="542" y="520" type="curve" smooth="yes"/>
      <point x="439" y="520"/>
      <point x="369" y="486"/>
      <point x="313" y="430" type="curve"/>
      <point x="401" y="342" type="line"/>
      <point x="427" y="371"/>
      <point x="473" y="390"/>
      <point x="517" y="390" type="curve" smooth="yes"/>
      <point x="592" y="390"/>
      <point x="615" y="344"/>
      <point x="615" y="251" type="curve" smooth="yes"/>
      <point x="615" y="157"/>
      <point x="588" y="110"/>
      <point x="522" y="110" type="curve" smooth="yes"/>
      <point x="479" y="110"/>
      <point x="424" y="129"/>
      <point x="398" y="158" type="curve"/>
    </contour>
  </outline>
</glyph>
<glyph name="shacyr" format="2">
  <advance width="879"/>
  <unicode hex="0448"/>
  <outline>
    <contour>
      <point x="53" y="0" type="line"/>
      <point x="827" y="0" type="line"/>
      <point x="827" y="500" type="line"/>
      <point x="637" y="500" type="line"/>
      <point x="637" y="132" type="line"/>
      <point x="535" y="132" type="line"/>
      <point x="535" y="500" type="line"/>
      <point x="345" y="500" type="line"/>
      <point x="345" y="132" type="line"/>
      <point x="243" y="132" type="line"/>
      <point x="243" y="500" type="line"/>
      <point x="53" y="500" type="line"/>
    </contour>
  </outline>
</glyph>
<glyph name="yucyr" format="2">
  <advance width="877"/>
  <unicode hex="044E"/>
  <anchor x="438" y="-20" name="bottom"/>
  <anchor x="438" y="520" name="top"/>
  <outline>
    <contour>
      <point x="228" y="189" type="line"/>
      <point x="364" y="189" type="line"/>
      <point x="364" y="321" type="line"/>
      <point x="228" y="321" type="line"/>
    </contour>
    <contour>
      <point x="569" y="-20" type="curve" smooth="yes"/>
      <point x="743" y="-20"/>
      <point x="838" y="79"/>
      <point x="838" y="255" type="curve" smooth="yes"/>
      <point x="838" y="421"/>
      <point x="742" y="520"/>
      <point x="569" y="520" type="curve" smooth="yes"/>
      <point x="406" y="520"/>
      <point x="300" y="421"/>
      <point x="300" y="255" type="curve" smooth="yes"/>
      <point x="300" y="79"/>
      <point x="407" y="-20"/>
    </contour>
    <contour>
      <point x="569" y="120" type="curve" smooth="yes"/>
      <point x="516" y="120"/>
      <point x="490" y="163.643"/>
      <point x="490" y="250.929" type="curve" smooth="yes"/>
      <point x="490" y="337.286"/>
      <point x="515" y="380"/>
      <point x="569" y="380" type="curve" smooth="yes"/>
      <point x="621" y="380"/>
      <point x="648" y="339.143"/>
      <point x="648" y="251.857" type="curve" smooth="yes"/>
      <point x="648" y="163.643"/>
      <point x="621" y="120"/>
    </contour>
    <contour>
      <point x="53" y="0" type="line"/>
      <point x="243" y="0" type="line"/>
      <point x="243" y="500" type="line"/>
      <point x="53" y="500" type="line"/>
    </contour>
  </outline>
</glyph>
<glyph name="yacyr" format="2">
  <advance width="570"/>
  <unicode hex="044F"/>
  <anchor x="300" y="-20" name="bottom"/>
  <anchor x="300" y="520" name="top"/>
  <outline>
    <contour>
      <point x="46" y="0" type="line"/>
      <point x="243" y="0" type="line"/>
      <point x="325" y="157" type="line"/>
      <point x="328" y="157" type="line"/>
      <point x="328" y="0" type="line"/>
      <point x="518" y="0" type="line"/>
      <point x="518" y="500" type="line"/>
      <point x="270" y="500" type="line" smooth="yes"/>
      <point x="125" y="500"/>
      <point x="55" y="442"/>
      <point x="55" y="343" type="curve" smooth="yes"/>
      <point x="55" y="271"/>
      <point x="92" y="222"/>
      <point x="146" y="191" type="curve"/>
    </contour>
    <contour>
      <point x="328" y="289" type="line"/>
      <point x="312" y="289" type="line" smooth="yes"/>
      <point x="265" y="289"/>
      <point x="245" y="301.304"/>
      <point x="245" y="330.013" type="curve" smooth="yes"/>
      <point x="245" y="357.696"/>
      <point x="265" y="370"/>
      <point x="312" y="370" type="curve" smooth="yes"/>
      <point x="328" y="370" type="line"/>
    </contour>
  </outline>
</glyph>
<glyph name="ljecyr" format="2">
  <advance width="820"/>
  <unicode hex="0459"/>
  <outline>
    <contour>
      <point x="-4" y="-8" type="line"/>
      <point x="23" y="-15"/>
      <point x="57" y="-20"/>
      <point x="98" y="-20" type="curve" smooth="yes"/>
      <point x="220.228" y="-20"/>
      <point x="268.175" y="31.5671"/>
      <point x="283.206" y="200.116" type="curve" smooth="yes"/>
      <point x="287.36" y="246.687"/>
      <point x="289" y="302.188"/>
      <point x="289" y="368" type="curve"/>
      <point x="339" y="368" type="line"/>
      <point x="339" y="0" type="line"/>
      <point x="595" y="0" type="line" smooth="yes"/>
      <point x="713" y="0"/>
      <point x="778" y="59.82"/>
      <point x="778" y="168.14" type="curve" smooth="yes"/>
      <point x="778" y="272.32"/>
      <point x="715" y="327"/>
      <point x="594" y="327" type="curve" smooth="yes"/>
      <point x="529" y="327" type="line"/>
      <point x="529" y="500" type="line"/>
      <point x="99" y="500" type="line"/>
      <point x="99" y="398.919"/>
      <point x="98.4208" y="321.931"/>
      <point x="95.8828" y="264.345" type="curve" smooth="yes"/>
      <point x="90.9634" y="152.728"/>
      <point x="78.6847" y="114"/>
      <point x="49" y="114" type="curve" smooth="yes"/>
      <point x="36" y="114"/>
      <point x="29" y="117"/>
      <point x="23" y="119" type="curve"/>
    </contour>
    <contour>
      <point x="529" y="132" type="line"/>
      <point x="529" y="195" type="line"/>
      <point x="538" y="195" type="line" smooth="yes"/>
      <point x="575" y="195"/>
      <point x="589" y="185.49"/>
      <point x="589" y="164.09" type="curve" smooth="yes"/>
      <point x="589" y="141.5"/>
      <point x="573" y="132"/>
      <point x="536" y="132" type="curve" smooth="yes"/>
    </contour>
  </outline>
</glyph>
<glyph name="njecyr" format="2">
  <advance width="830"/>
  <unicode hex="045A"/>
  <outline>
    <contour>
      <point x="53" y="0" type="line"/>
      <point x="243" y="0" type="line"/>
      <point x="243" y="194" type="line"/>
      <point x="349" y="194" type="line"/>
      <point x="349" y="0" type="line"/>
      <point x="539" y="0" type="line"/>
      <point x="539" y="500" type="line"/>
      <point x="349" y="500" type="line"/>
      <point x="349" y="326" type="line"/>
      <point x="243" y="326" type="line"/>
      <point x="243" y="500" type="line"/>
      <point x="53" y="500" type="line"/>
    </contour>
    <contour>
      <point x="375" y="0" type="line"/>
      <point x="605" y="0" type="line" smooth="yes"/>
      <point x="723" y="0"/>
      <point x="788" y="59.8297"/>
      <point x="788" y="168.142" type="curve" smooth="yes"/>
      <point x="788" y="272.328"/>
      <point x="725" y="327"/>
      <point x="604" y="327" type="curve" smooth="yes"/>
      <point x="467" y="327" type="line"/>
      <point x="467" y="195" type="line"/>
      <point x="548" y="195" type="line" smooth="yes"/>
      <point x="585" y="195"/>
      <point x="599" y="185.491"/>
      <point x="599" y="164.094" type="curve" smooth="yes"/>
      <point x="599" y="141.509"/>
      <point x="583" y="132"/>
      <point x="546" y="132" type="curve" smooth="yes"/>
      <point x="530" y="132" type="line"/>
      <point x="530" y="500" type="line"/>
      <point x="375" y="500" type="line"/>
    </contour>
  </outline>
</glyph>
<glyph name="tshecyr" format="2">
  <advance width="665"/>
  <unicode hex="045B"/>
  <outline>
    <contour>
      <point x="89" y="0" type="line"/>
      <point x="279" y="0" type="line"/>
      <point x="279" y="197" type="line" smooth="yes"/>
      <point x="279" y="292"/>
      <point x="299" y="358"/>
      <point x="354" y="358" type="curve" smooth="yes"/>
      <point x="394" y="358"/>
      <point x="416" y="323"/>
      <point x="416" y="246" type="curve" smooth="yes"/>
      <point x="416" y="0" type="line"/>
      <point x="606" y="0" type="line"/>
      <point x="606" y="294" type="line" smooth="yes"/>
      <point x="606" y="438"/>
      <point x="542" y="500"/>
      <point x="448" y="500" type="curve" smooth="yes"/>
      <point x="372.97" y="500"/>
      <point x="312.91" y="459.88"/>
      <point x="279" y="389.2" type="curve"/>
      <point x="279" y="589" type="line"/>
      <point x="396" y="589" type="line"/>
      <point x="396" y="635" type="line"/>
      <point x="279" y="635" type="line"/>
      <point x="279" y="750" type="line"/>
      <point x="89" y="750" type="line"/>
      <point x="89" y="635" type="line"/>
      <point x="11" y="635" type="line"/>
      <point x="11" y="589" type="line"/>
      <point x="89" y="589" type="line"/>
    </contour>
  </outline>
</glyph>
<glyph name="dzhecyr" format="2">
  <advance width="605"/>
  <unicode hex="045F"/>
  <outline>
    <contour>
      <point x="53" y="0" type="line"/>
      <point x="239" y="0" type="line"/>
      <point x="254" y="-42"/>
      <point x="252" y="-97"/>
      <point x="243" y="-141" type="curve"/>
      <point x="373" y="-141" type="line"/>
      <point x="389" y="-88"/>
      <point x="385" y="-52"/>
      <point x="367" y="0" type="curve"/>
      <point x="553" y="0" type="line"/>
      <point x="553" y="500" type="line"/>
      <point x="363" y="500" type="line"/>
      <point x="363" y="133" type="line"/>
      <point x="243" y="133" type="line"/>
      <point x="243" y="500" type="line"/>
      <point x="53" y="500" type="line"/>
    </contour>
  </outline>
</glyph>
<glyph name="endash" format="2">
  <advance width="555"/>
  <unicode hex="2013"/>
  <outline>
    <contour>
      <point x="50" y="262" type="line"/>
      <point x="505" y="262" type="line"/>
      <point x="505" y="296" type="line"/>
      <point x="50" y="296" type="line"/>
    </contour>
  </outline>
</glyph>
<glyph name="four.superior" format="2">
  <advance width="486"/>
  <unicode hex="2074"/>
  <outline>
    <contour>
      <point x="17" y="449" type="line"/>
      <point x="248" y="449" type="line"/>
      <point x="248" y="344" type="line"/>
      <point x="380" y="344" type="line"/>
      <point x="380" y="449" type="line"/>
      <point x="467" y="449" type="line"/>
      <point x="467" y="543" type="line"/>
      <point x="380" y="543" type="line"/>
      <point x="380" y="830" type="line"/>
      <point x="225" y="830" type="line"/>
      <point x="17" y="497" type="line"/>
    </contour>
    <contour>
      <point x="156" y="543" type="line"/>
      <point x="248" y="690" type="line"/>
      <point x="248" y="543" type="line"/>
    </contour>
  </outline>
</glyph>
<glyph name="lira" format="2">
  <advance width="666"/>
  <unicode hex="20A4"/>
  <outline>
    <contour>
      <point x="42" y="329" type="line"/>
      <point x="500" y="329" type="line"/>
      <point x="500" y="419" type="line"/>
      <point x="42" y="419" type="line"/>
    </contour>
    <contour>
      <point x="42" y="219" type="line"/>
      <point x="500" y="219" type="line"/>
      <point x="500" y="309" type="line"/>
      <point x="42" y="309" type="line"/>
    </contour>
    <contour>
      <point x="38" y="0" type="line"/>
      <point x="643" y="0" type="line"/>
      <point x="643" y="140" type="line"/>
      <point x="202" y="140" type="line"/>
      <point x="294" y="163"/>
      <point x="310" y="217.13"/>
      <point x="310" y="284.291" type="curve" smooth="yes"/>
      <point x="310" y="468.733" type="line" smooth="yes"/>
      <point x="310" y="536.897"/>
      <point x="326" y="580"/>
      <point x="386" y="580" type="curve" smooth="yes"/>
      <point x="431" y="580"/>
      <point x="481" y="555.721"/>
      <point x="541" y="493" type="curve"/>
      <point x="647" y="599" type="line"/>
      <point x="573" y="689"/>
      <point x="477" y="720"/>
      <point x="385" y="720" type="curve" smooth="yes"/>
      <point x="228" y="720"/>
      <point x="120" y="630"/>
      <point x="120" y="482" type="curve" smooth="yes"/>
      <point x="120" y="244" type="line" smooth="yes"/>
      <point x="120" y="176"/>
      <point x="84" y="128"/>
      <point x="38" y="100" type="curve"/>
    </contour>
  </outline>
</glyph>
<glyph name="Euro" format="2">
  <advance width="730"/>
  <unicode hex="20AC"/>
  <outline>
    <contour>
      <point x="15" y="364" type="line"/>
      <point x="512" y="364" type="line"/>
      <point x="527" y="444" type="line"/>
      <point x="281" y="444" type="line"/>
      <point x="296" y="528"/>
      <point x="351" y="579"/>
      <point x="424" y="579" type="curve" smooth="yes"/>
      <point x="497" y="579"/>
      <point x="542" y="551"/>
      <point x="591" y="493" type="curve"/>
      <point x="697" y="599" type="line"/>
      <point x="620" y="693"/>
      <point x="529" y="720"/>
      <point x="428" y="720" type="curve" smooth="yes"/>
      <point x="232" y="720"/>
      <point x="118" y="588"/>
      <point x="92" y="444" type="curve"/>
      <point x="30" y="444" type="line"/>
    </contour>
    <contour>
      <point x="10" y="260" type="line"/>
      <point x="90" y="260" type="line"/>
      <point x="115" y="114"/>
      <point x="227" y="-20"/>
      <point x="425" y="-20" type="curve" smooth="yes"/>
      <point x="562" y="-20"/>
      <point x="639" y="23"/>
      <point x="710" y="102" type="curve"/>
      <point x="604" y="208" type="line"/>
      <point x="551" y="150"/>
      <point x="502" y="120"/>
      <point x="433" y="120" type="curve" smooth="yes"/>
      <point x="338" y="120"/>
      <point x="293" y="177"/>
      <point x="281" y="260" type="curve"/>
      <point x="493" y="260" type="line"/>
      <point x="508" y="340" type="line"/>
      <point x="25" y="340" type="line"/>
    </contour>
  </outline>
</glyph>
<glyph name="austral" format="2">
  <advance width="718"/>
  <unicode hex="20B3"/>
  <outline>
    <contour>
      <point x="13" y="133" type="line"/>
      <point x="705" y="133" type="line"/>
      <point x="705" y="216" type="line"/>
      <point x="13" y="216" type="line"/>
    </contour>
    <contour>
      <point x="13" y="252" type="line"/>
      <point x="705" y="252" type="line"/>
      <point x="705" y="335" type="line"/>
      <point x="13" y="335" type="line"/>
    </contour>
    <contour>
      <point x="410.5" y="700" type="line"/>
      <point x="255.5" y="700" type="line"/>
      <point x="28.5" y="0" type="line"/>
      <point x="227.5" y="0" type="line"/>
    </contour>
    <contour>
      <point x="462.5" y="700" type="line"/>
      <point x="307.5" y="700" type="line"/>
      <point x="490.5" y="0" type="line"/>
      <point x="689.5" y="0" type="line"/>
    </contour>
  </outline>
</glyph>
<glyph name="trademark" format="2">
  <advance width="1016"/>
  <unicode hex="2122"/>
  <outline>
    <contour>
      <point x="160" y="248" type="line"/>
      <point x="291" y="248" type="line"/>
      <point x="291" y="605" type="line"/>
      <point x="430" y="605" type="line"/>
      <point x="430" y="700" type="line"/>
      <point x="21" y="700" type="line"/>
      <point x="21" y="605" type="line"/>
      <point x="160" y="605" type="line"/>
    </contour>
    <contour>
      <point x="463" y="248" type="line"/>
      <point x="594" y="248" type="line"/>
      <point x="594" y="448" type="line"/>
      <point x="669" y="248" type="line"/>
      <point x="761" y="248" type="line"/>
      <point x="846" y="448" type="line"/>
      <point x="846" y="248" type="line"/>
      <point x="977" y="248" type="line"/>
      <point x="977" y="700" type="line"/>
      <point x="856" y="700" type="line"/>
      <point x="715" y="383" type="line"/>
      <point x="584" y="700" type="line"/>
      <point x="463" y="700" type="line"/>
    </contour>
  </outline>
</glyph>
<glyph name="C.ss12" format="2">
  <advance width="669"/>
  <anchor x="377" y="-19" name="bottom"/>
  <anchor x="357" y="719" name="top"/>
  <outline>
    <contour>
      <point x="623.094" y="218.326" type="line"/>
      <point x="548.215" y="158.533"/>
      <point x="463.723" y="124.055"/>
      <point x="396" y="124.055" type="curve" smooth="yes"/>
      <point x="257" y="124.055"/>
      <point x="223" y="206"/>
      <point x="223" y="352" type="curve" smooth="yes"/>
      <point x="223" y="512.314"/>
      <point x="275.061" y="576"/>
      <point x="396" y="576" type="curve" smooth="yes"/>
      <point x="463.723" y="576"/>
      <point x="548.215" y="541.523"/>
      <point x="623.094" y="481.73" type="curve"/>
      <point x="635.574" y="613.336" type="line"/>
      <point x="581.116" y="678.004"/>
      <point x="483.377" y="720"/>
      <point x="379" y="720" type="curve" smooth="yes"/>
      <point x="168" y="720"/>
      <point x="33" y="569"/>
      <point x="33" y="348" type="curve" smooth="yes"/>
      <point x="33" y="129"/>
      <point x="166" y="-20"/>
      <point x="379" y="-20" type="curve" smooth="yes"/>
      <point x="483.377" y="-20"/>
      <point x="581.116" y="22.0513"/>
      <point x="635.574" y="86.7198" type="curve"/>
    </contour>
  </outline>
</glyph>
<glyph name="Ccedilla.ss09" format="2">
  <advance width="773"/>
  <anchor x="387" y="719" name="top"/>
  <anchor x="387" y="-217" name="bottom"/>
  <outline>
    <contour>
      <point x="549" y="261" type="line"/>
      <point x="527" y="170"/>
      <point x="474" y="120"/>
      <point x="397" y="120" type="curve" smooth="yes"/>
      <point x="293" y="120"/>
      <point x="224" y="215.415"/>
      <point x="224" y="356.026" type="curve" smooth="yes"/>
      <point x="224" y="496.638"/>
      <point x="293" y="580"/>
      <point x="403" y="580" type="curve" smooth="yes"/>
      <point x="470" y="580"/>
      <point x="519" y="546"/>
      <point x="539" y="485" type="curve"/>
      <point x="730" y="485" type="line"/>
      <point x="686" y="623"/>
      <point x="581" y="720"/>
      <point x="400" y="720" type="curve" smooth="yes"/>
      <point x="183" y="720"/>
      <point x="33" y="565"/>
      <point x="33" y="357" type="curve" smooth="yes"/>
      <point x="33" y="146"/>
      <point x="187" y="-20"/>
      <point x="402" y="-20" type="curve" smooth="yes"/>
      <point x="588" y="-20"/>
      <point x="708" y="103"/>
      <point x="740" y="261" type="curve"/>
    </contour>
    <contour>
      <point x="255" y="-204" type="line"/>
      <point x="277" y="-210"/>
      <point x="310" y="-217"/>
      <point x="363" y="-217" type="curve" smooth="yes"/>
      <point x="466" y="-217"/>
      <point x="515" y="-190"/>
      <point x="515" y="-133" type="curve" smooth="yes"/>
      <point x="515" y="-86"/>
      <point x="482" y="-63"/>
      <point x="414" y="-63" type="curve"/>
      <point x="461.423" y="21.4105" type="line"/>
      <point x="359.423" y="21.4105" type="line"/>
      <point x="291" y="-108" type="line"/>
      <point x="307" y="-106"/>
      <point x="332" y="-104"/>
      <point x="349" y="-104" type="curve" smooth="yes"/>
      <point x="379" y="-104"/>
      <point x="395" y="-110"/>
      <point x="395" y="-132" type="curve" smooth="yes"/>
      <point x="395" y="-150"/>
      <point x="384" y="-163"/>
      <point x="347" y="-163" type="curve" smooth="yes"/>
      <point x="326" y="-163"/>
      <point x="297" y="-159"/>
      <point x="281" y="-153" type="curve"/>
    </contour>
  </outline>
</glyph>
<glyph name="Ccedilla.ss12" format="2">
  <advance width="669"/>
  <anchor x="357" y="719" name="top"/>
  <anchor x="357" y="-217" name="bottom"/>
  <outline>
    <contour>
      <point x="623.094" y="218.326" type="line"/>
      <point x="548.215" y="158.533"/>
      <point x="463.723" y="124.055"/>
      <point x="396" y="124.055" type="curve" smooth="yes"/>
      <point x="257" y="124.055"/>
      <point x="223" y="206"/>
      <point x="223" y="352" type="curve" smooth="yes"/>
      <point x="223" y="512.314"/>
      <point x="275.061" y="576"/>
      <point x="396" y="576" type="curve" smooth="yes"/>
      <point x="463.723" y="576"/>
      <point x="548.215" y="541.523"/>
      <point x="623.094" y="481.73" type="curve"/>
      <point x="635.574" y="613.336" type="line"/>
      <point x="581.116" y="678.004"/>
      <point x="483.377" y="720"/>
      <point x="379" y="720" type="curve" smooth="yes"/>
      <point x="168" y="720"/>
      <point x="33" y="569"/>
      <point x="33" y="348" type="curve" smooth="yes"/>
      <point x="33" y="129"/>
      <point x="166" y="-20"/>
      <point x="379" y="-20" type="curve" smooth="yes"/>
      <point x="483.377" y="-20"/>
      <point x="581.116" y="22.0513"/>
      <point x="635.574" y="86.7198" type="curve"/>
    </contour>
    <contour>
      <point x="225" y="-204" type="line"/>
      <point x="247" y="-210"/>
      <point x="280" y="-217"/>
      <point x="333" y="-217" type="curve" smooth="yes"/>
      <point x="436" y="-217"/>
      <point x="485" y="-190"/>
      <point x="485" y="-133" type="curve" smooth="yes"/>
      <point x="485" y="-86"/>
      <point x="452" y="-63"/>
      <point x="384" y="-63" type="curve"/>
      <point x="431.423" y="21.4105" type="line"/>
      <point x="329.423" y="21.4105" type="line"/>
      <point x="261" y="-108" type="line"/>
      <point x="277" y="-106"/>
      <point x="302" y="-104"/>
      <point x="319" y="-104" type="curve" smooth="yes"/>
      <point x="349" y="-104"/>
      <point x="365" y="-110"/>
      <point x="365" y="-132" type="curve" smooth="yes"/>
      <point x="365" y="-150"/>
      <point x="354" y="-163"/>
      <point x="317" y="-163" type="curve" smooth="yes"/>
      <point x="296" y="-163"/>
      <point x="267" y="-159"/>
      <point x="251" y="-153" type="curve"/>
    </contour>
  </outline>
</glyph>
<glyph name="Eng.ss12" format="2">
  <advance width="752"/>
  <anchor x="376" y="719" name="top"/>
  <anchor x="356" y="-220" name="bottom"/>
  <outline>
    <contour>
      <point x="68" y="0" type="line"/>
      <point x="258" y="0" type="line"/>
      <point x="258" y="379" type="line"/>
      <point x="504" y="0" type="line"/>
      <point x="684" y="125.56" type="line"/>
      <point x="684" y="700" type="line"/>
      <point x="494" y="700" type="line"/>
      <point x="494" y="321" type="line"/>
      <point x="248" y="700" type="line"/>
      <point x="68" y="700" type="line"/>
    </contour>
    <contour>
      <point x="263.75" y="-188" type="line"/>
      <point x="310.694" y="-214"/>
      <point x="368.625" y="-230"/>
      <point x="457.52" y="-230" type="curve" smooth="yes"/>
      <point x="604.345" y="-230"/>
      <point x="684.25" y="-134"/>
      <point x="684.25" y="42" type="curve" smooth="yes"/>
      <point x="684.25" y="490" type="line"/>
      <point x="494.25" y="490" type="line"/>
      <point x="494.25" y="52" type="line" smooth="yes"/>
      <point x="494.25" y="-55"/>
      <point x="477.21" y="-90"/>
      <point x="427.094" y="-90" type="curve" smooth="yes"/>
      <point x="376.978" y="-90"/>
      <point x="334.88" y="-82"/>
      <point x="278.75" y="-60" type="curve"/>
    </contour>
  </outline>
</glyph>
<glyph name="Ereversedcyr.ss12" format="2">
  <advance width="669"/>
  <anchor x="304" y="719" name="top"/>
  <outline>
    <contour>
      <point x="33.4261" y="86.7198" type="line"/>
      <point x="87.8838" y="22.0512"/>
      <point x="185.623" y="-20"/>
      <point x="290" y="-20" type="curve" smooth="yes"/>
      <point x="503" y="-20"/>
      <point x="636" y="129"/>
      <point x="636" y="348" type="curve" smooth="yes"/>
      <point x="636" y="569"/>
      <point x="501" y="720"/>
      <point x="290" y="720" type="curve" smooth="yes"/>
      <point x="185.623" y="720"/>
      <point x="87.8838" y="678.004"/>
      <point x="33.4261" y="613.336" type="curve"/>
      <point x="45.906" y="481.73" type="line"/>
      <point x="120.785" y="541.523"/>
      <point x="205.277" y="576"/>
      <point x="273" y="576" type="curve" smooth="yes"/>
      <point x="393.939" y="576"/>
      <point x="446" y="512.314"/>
      <point x="446" y="352" type="curve" smooth="yes"/>
      <point x="446" y="206"/>
      <point x="412" y="124.055"/>
      <point x="273" y="124.055" type="curve" smooth="yes"/>
      <point x="205.277" y="124.055"/>
      <point x="120.785" y="158.533"/>
      <point x="45.906" y="218.326" type="curve"/>
    </contour>
    <contour>
      <point x="154" y="290" type="line"/>
      <point x="509" y="290" type="line"/>
      <point x="509" y="430" type="line"/>
      <point x="154" y="430" type="line"/>
    </contour>
  </outline>
</glyph>
<glyph name="Euro.ss10" format="2">
  <advance width="714"/>
  <outline>
    <contour>
      <point x="3" y="364" type="line"/>
      <point x="526" y="364" type="line"/>
      <point x="538" y="444" type="line"/>
      <point x="263" y="444" type="line"/>
      <point x="286" y="528"/>
      <point x="342" y="579"/>
      <point x="427" y="579" type="curve" smooth="yes"/>
      <point x="506" y="579"/>
      <point x="563" y="534"/>
      <point x="627" y="414" type="curve"/>
      <point x="672" y="578" type="line"/>
      <point x="612" y="664"/>
      <point x="516" y="720"/>
      <point x="396" y="720" type="curve" smooth="yes"/>
      <point x="227" y="720"/>
      <point x="102" y="610"/>
      <point x="70" y="444" type="curve"/>
      <point x="15" y="444" type="line"/>
    </contour>
    <contour>
      <point x="3" y="260" type="line"/>
      <point x="72" y="260" type="line"/>
      <point x="108" y="94"/>
      <point x="234" y="-20"/>
      <point x="404" y="-20" type="curve" smooth="yes"/>
      <point x="523" y="-20"/>
      <point x="621" y="36"/>
      <point x="681" y="122" type="curve"/>
      <point x="636" y="286" type="line"/>
      <point x="572" y="166"/>
      <point x="513" y="121"/>
      <point x="435" y="121" type="curve" smooth="yes"/>
      <point x="349" y="121"/>
      <point x="290" y="175"/>
      <point x="265" y="260" type="curve"/>
      <point x="506" y="260" type="line"/>
      <point x="518" y="340" type="line"/>
      <point x="15" y="340" type="line"/>
    </contour>
  </outline>
</glyph>
<glyph name="Euro.ss12" format="2">
  <advance width="695"/>
  <outline>
    <contour>
      <point x="31" y="360" type="line"/>
      <point x="542" y="360" type="line"/>
      <point x="553" y="449" type="line"/>
      <point x="295" y="449" type="line"/>
      <point x="316" y="533"/>
      <point x="367" y="580"/>
      <point x="454" y="580" type="curve" smooth="yes"/>
      <point x="526" y="580"/>
      <point x="587" y="548"/>
      <point x="647" y="472" type="curve"/>
      <point x="660" y="596" type="line"/>
      <point x="592" y="679"/>
      <point x="511" y="720"/>
      <point x="412" y="720" type="curve" smooth="yes"/>
      <point x="253" y="720"/>
      <point x="136" y="613"/>
      <point x="103" y="449" type="curve"/>
      <point x="42" y="449" type="line"/>
    </contour>
    <contour>
      <point x="21" y="251" type="line"/>
      <point x="102" y="251" type="line"/>
      <point x="135" y="86"/>
      <point x="250" y="-20"/>
      <point x="412" y="-20" type="curve" smooth="yes"/>
      <point x="512" y="-20"/>
      <point x="594" y="20"/>
      <point x="662" y="104" type="curve"/>
      <point x="649" y="228" type="line"/>
      <point x="595" y="153"/>
      <point x="534" y="121"/>
      <point x="459" y="121" type="curve" smooth="yes"/>
      <point x="369" y="121"/>
      <point x="317" y="168"/>
      <point x="295" y="251" type="curve"/>
      <point x="524" y="251" type="line"/>
      <point x="535" y="340" type="line"/>
      <point x="32" y="340" type="line"/>
    </contour>
  </outline>
</glyph>
<glyph name="G.ss03" format="2">
  <advance width="773"/>
  <anchor x="398" y="-19" name="bottom"/>
  <anchor x="387" y="719" name="top"/>
  <outline>
    <contour>
      <point x="381" y="260" type="line"/>
      <point x="381" y="390" type="line"/>
      <point x="740" y="390" type="line"/>
      <point x="740" y="320.17" type="line" smooth="yes"/>
      <point x="740" y="118.662"/>
      <point x="600" y="-20"/>
      <point x="396" y="-20" type="curve" smooth="yes"/>
      <point x="186" y="-20"/>
      <point x="33" y="135"/>
      <point x="33" y="348" type="curve" smooth="yes"/>
      <point x="33" y="558"/>
      <point x="179" y="720"/>
      <point x="387" y="720" type="curve" smooth="yes"/>
      <point x="520" y="720"/>
      <point x="626" y="664"/>
      <point x="693" y="578" type="curve"/>
      <point x="648" y="414" type="line"/>
      <point x="574" y="534.727"/>
      <point x="508" y="580"/>
      <point x="409" y="580" type="curve" smooth="yes"/>
      <point x="291" y="580"/>
      <point x="224" y="496.638"/>
      <point x="224" y="348.996" type="curve" smooth="yes"/>
      <point x="224" y="209.389"/>
      <point x="296" y="120"/>
      <point x="409" y="120" type="curve" smooth="yes"/>
      <point x="492" y="120"/>
      <point x="542" y="185.468"/>
      <point x="542" y="260" type="curve"/>
    </contour>
  </outline>
</glyph>
<glyph name="G.ss09" format="2">
  <advance width="780"/>
  <anchor x="390" y="-19" name="bottom"/>
  <anchor x="390" y="719" name="top"/>
  <outline>
    <contour>
      <point x="330" y="251" type="line"/>
      <point x="584" y="251" type="line"/>
      <point x="624" y="248" type="line"/>
      <point x="686" y="0" type="line"/>
      <point x="747" y="0" type="line"/>
      <point x="747" y="381" type="line"/>
      <point x="330" y="381" type="line"/>
    </contour>
    <contour>
      <point x="552" y="328" type="line"/>
      <point x="552" y="220.483"/>
      <point x="504" y="120"/>
      <point x="393" y="120" type="curve" smooth="yes"/>
      <point x="297" y="120"/>
      <point x="224" y="196.332"/>
      <point x="224" y="354.017" type="curve" smooth="yes"/>
      <point x="224" y="497.642"/>
      <point x="285" y="580"/>
      <point x="401" y="580" type="curve" smooth="yes"/>
      <point x="473" y="580"/>
      <point x="519" y="548"/>
      <point x="536" y="485" type="curve"/>
      <point x="727" y="485" type="line"/>
      <point x="697" y="623"/>
      <point x="566" y="720"/>
      <point x="399" y="720" type="curve" smooth="yes"/>
      <point x="186" y="720"/>
      <point x="33" y="563"/>
      <point x="33" y="350" type="curve" smooth="yes"/>
      <point x="33" y="128"/>
      <point x="167" y="-20"/>
      <point x="368" y="-20" type="curve" smooth="yes"/>
      <point x="511" y="-20"/>
      <point x="618" y="75"/>
      <point x="651" y="236" type="curve"/>
    </contour>
  </outline>
</glyph>
<glyph name="G.ss12" format="2">
  <advance width="764"/>
  <anchor x="390" y="-19" name="bottom"/>
  <anchor x="390" y="719" name="top"/>
  <outline>
    <contour>
      <point x="358" y="265" type="line"/>
      <point x="609" y="265" type="line"/>
      <point x="651" y="0" type="line"/>
      <point x="731" y="0" type="line"/>
      <point x="731" y="395" type="line"/>
      <point x="358" y="395" type="line"/>
    </contour>
    <contour>
      <point x="586" y="344" type="line"/>
      <point x="586" y="338"/>
      <point x="587" y="325"/>
      <point x="584" y="298" type="curve" smooth="yes"/>
      <point x="575" y="226"/>
      <point x="544" y="120"/>
      <point x="417" y="120" type="curve" smooth="yes"/>
      <point x="304" y="120"/>
      <point x="224" y="203"/>
      <point x="224" y="350" type="curve" smooth="yes"/>
      <point x="224" y="471"/>
      <point x="279" y="580"/>
      <point x="431" y="580" type="curve" smooth="yes"/>
      <point x="514" y="580"/>
      <point x="585" y="548"/>
      <point x="656" y="472" type="curve"/>
      <point x="669" y="596" type="line"/>
      <point x="595" y="679"/>
      <point x="499" y="720"/>
      <point x="384" y="720" type="curve" smooth="yes"/>
      <point x="171" y="720"/>
      <point x="33" y="564"/>
      <point x="33" y="353" type="curve" smooth="yes"/>
      <point x="33" y="154"/>
      <point x="155" y="-20"/>
      <point x="370" y="-20" type="curve" smooth="yes"/>
      <point x="555" y="-20"/>
      <point x="603" y="110"/>
      <point x="643" y="240" type="curve"/>
      <point x="642" y="348" type="line"/>
    </contour>
  </outline>
</glyph>
<glyph name="G.ss15" format="2">
  <advance width="767"/>
  <anchor x="393" y="-19" name="bottom"/>
  <anchor x="393" y="719" name="top"/>
  <outline>
    <contour>
      <point x="377" y="264" type="line"/>
      <point x="567" y="264" type="line"/>
      <point x="547" y="309" type="line"/>
      <point x="547" y="182"/>
      <point x="500" y="121"/>
      <point x="400" y="121" type="curve" smooth="yes"/>
      <point x="285.044" y="121"/>
      <point x="223" y="200.22"/>
      <point x="223" y="347" type="curve" smooth="yes"/>
      <point x="223" y="512.556"/>
      <point x="272.869" y="576"/>
      <point x="403" y="576" type="curve" smooth="yes"/>
      <point x="493" y="576"/>
      <point x="593" y="548"/>
      <point x="664" y="472" type="curve"/>
      <point x="677" y="596" type="line"/>
      <point x="604" y="679"/>
      <point x="503" y="720"/>
      <point x="388" y="720" type="curve" smooth="yes"/>
      <point x="171" y="720"/>
      <point x="33" y="575"/>
      <point x="33" y="347" type="curve" smooth="yes"/>
      <point x="33" y="120"/>
      <point x="170" y="-19"/>
      <point x="382" y="-19" type="curve" smooth="yes"/>
      <point x="596" y="-19"/>
      <point x="734" y="122"/>
      <point x="734" y="329" type="curve" smooth="yes"/>
      <point x="734" y="404" type="line"/>
      <point x="377" y="404" type="line"/>
    </contour>
  </outline>
</glyph>
<glyph name="J.ss12" format="2">
  <advance width="500"/>
  <anchor x="347" y="719" name="top"/>
  <anchor x="209" y="-20" name="bottom"/>
  <outline>
    <contour>
      <point x="19" y="22" type="line"/>
      <point x="65.9442" y="-4"/>
      <point x="123.875" y="-20"/>
      <point x="212.77" y="-20" type="curve" smooth="yes"/>
      <point x="359.595" y="-20"/>
      <point x="439.5" y="76"/>
      <point x="439.5" y="252" type="curve" smooth="yes"/>
      <point x="439.5" y="700" type="line"/>
      <point x="249.5" y="700" type="line"/>
      <point x="249.5" y="262" type="line" smooth="yes"/>
      <point x="249.5" y="155"/>
      <point x="232.46" y="120"/>
      <point x="182.344" y="120" type="curve" smooth="yes"/>
      <point x="132.228" y="120"/>
      <point x="90.1302" y="128"/>
      <point x="34" y="150" type="curve"/>
    </contour>
  </outline>
</glyph>
<glyph name="Ljecyr.ss08" format="2">
  <advance width="920"/>
  <outline>
    <contour>
      <point x="464" y="0" type="line"/>
      <point x="631" y="0" type="line" smooth="yes"/>
      <point x="798" y="0"/>
      <point x="881" y="74.6341"/>
      <point x="881" y="222.805" type="curve" smooth="yes"/>
      <point x="881" y="372.073"/>
      <point x="796" y="450"/>
      <point x="631" y="450" type="curve" smooth="yes"/>
      <point x="414" y="450" type="line"/>
      <point x="429" y="310" type="line"/>
      <point x="574" y="310" type="line" smooth="yes"/>
      <point x="667" y="310"/>
      <point x="691" y="289.077"/>
      <point x="691" y="226.308" type="curve" smooth="yes"/>
      <point x="691" y="163.538"/>
      <point x="667" y="140"/>
      <point x="574" y="140" type="curve" smooth="yes"/>
      <point x="516" y="140" type="line"/>
      <point x="473" y="3" type="line"/>
    </contour>
    <contour>
      <point x="379" y="700" type="line"/>
      <point x="224" y="700" type="line"/>
      <point x="-3" y="0" type="line"/>
      <point x="196" y="0" type="line"/>
    </contour>
    <contour>
      <point x="431" y="700" type="line"/>
      <point x="276" y="700" type="line"/>
      <point x="459" y="0" type="line"/>
      <point x="658" y="0" type="line"/>
    </contour>
  </outline>
</glyph>
<glyph name="Schwa.ss09" format="2">
  <advance width="779"/>
  <anchor x="390" y="719" name="top"/>
  <anchor x="390" y="-20" name="bottom"/>
  <outline>
    <contour>
      <point x="40" y="417" type="line"/>
      <point x="36" y="402"/>
      <point x="33" y="376"/>
      <point x="33" y="358" type="curve" smooth="yes"/>
      <point x="33" y="125"/>
      <point x="170" y="-20"/>
      <point x="390" y="-20" type="curve" smooth="yes"/>
      <point x="596" y="-20"/>
      <point x="746" y="111"/>
      <point x="746" y="350" type="curve" smooth="yes"/>
      <point x="746" y="582"/>
      <point x="594" y="720"/>
      <point x="393" y="720" type="curve" smooth="yes"/>
      <point x="216" y="720"/>
      <point x="87" y="623"/>
      <point x="55" y="485" type="curve"/>
      <point x="246" y="485" type="line"/>
      <point x="264" y="538"/>
      <point x="307" y="580"/>
      <point x="389" y="580" type="curve" smooth="yes"/>
      <point x="503" y="580"/>
      <point x="556" y="505.69"/>
      <point x="556" y="350.013" type="curve" smooth="yes"/>
      <point x="556" y="192.328"/>
      <point x="503" y="120"/>
      <point x="392" y="120" type="curve" smooth="yes"/>
      <point x="294" y="120"/>
      <point x="239" y="175"/>
      <point x="229" y="280" type="curve"/>
      <point x="565" y="280" type="line"/>
      <point x="566" y="417" type="line"/>
    </contour>
  </outline>
</glyph>
<glyph name="Schwa.ss10" format="2">
  <advance width="779"/>
  <anchor x="390" y="719" name="top"/>
  <anchor x="390" y="-20" name="bottom"/>
  <outline>
    <contour>
      <point x="229" y="280" type="line"/>
      <point x="239" y="174.34"/>
      <point x="294" y="120"/>
      <point x="392" y="120" type="curve" smooth="yes"/>
      <point x="503" y="120"/>
      <point x="556" y="195.328"/>
      <point x="556" y="353.013" type="curve" smooth="yes"/>
      <point x="556" y="508.69"/>
      <point x="492" y="580"/>
      <point x="378" y="580" type="curve" smooth="yes"/>
      <point x="278" y="580"/>
      <point x="192.03" y="549.194"/>
      <point x="119.03" y="428.467" type="curve"/>
      <point x="78" y="578" type="line"/>
      <point x="145" y="664"/>
      <point x="251" y="720"/>
      <point x="384" y="720" type="curve" smooth="yes"/>
      <point x="595" y="720"/>
      <point x="746" y="590"/>
      <point x="746" y="358" type="curve" smooth="yes"/>
      <point x="746" y="119"/>
      <point x="596" y="-20"/>
      <point x="390" y="-20" type="curve" smooth="yes"/>
      <point x="170" y="-20"/>
      <point x="33" y="125"/>
      <point x="33" y="358" type="curve" smooth="yes"/>
      <point x="33" y="376"/>
      <point x="36" y="402"/>
      <point x="40" y="417" type="curve"/>
      <point x="566" y="417" type="line"/>
      <point x="565" y="280" type="line"/>
    </contour>
  </outline>
</glyph>
<glyph name="a.ss09" format="2">
  <advance width="570"/>
  <anchor x="290" y="520" name="top"/>
  <anchor x="285" y="-20" name="bottom"/>
  <anchor x="505" y="-3" name="ogonek"/>
  <outline>
    <contour>
      <point x="321" y="155" type="curve"/>
      <point x="311" y="171"/>
      <point x="291" y="182"/>
      <point x="265.916" y="182" type="curve" smooth="yes"/>
      <point x="242" y="182"/>
      <point x="229" y="172"/>
      <point x="229" y="149.426" type="curve" smooth="yes"/>
      <point x="229" y="126"/>
      <point x="243" y="114"/>
      <point x="266.285" y="114" type="curve" smooth="yes"/>
      <point x="294" y="114"/>
      <point x="317" y="131"/>
    </contour>
    <contour>
      <point x="321" y="0" type="line"/>
      <point x="321" y="63" type="line"/>
      <point x="297" y="10"/>
      <point x="252" y="-20"/>
      <point x="194" y="-20" type="curve" smooth="yes"/>
      <point x="105" y="-20"/>
      <point x="39" y="49"/>
      <point x="39" y="146" type="curve" smooth="yes"/>
      <point x="39" y="243"/>
      <point x="105" y="312"/>
      <point x="195" y="312" type="curve" smooth="yes"/>
      <point x="252" y="312"/>
      <point x="296" y="285"/>
      <point x="321" y="238" type="curve"/>
      <point x="321" y="343.387" type="line" smooth="yes"/>
      <point x="321" y="376.827"/>
      <point x="308" y="390"/>
      <point x="283" y="390" type="curve" smooth="yes"/>
      <point x="259" y="390"/>
      <point x="242" y="376"/>
      <point x="237" y="341" type="curve"/>
      <point x="53" y="341" type="line"/>
      <point x="60" y="449"/>
      <point x="139" y="520"/>
      <point x="296" y="520" type="curve" smooth="yes"/>
      <point x="427" y="520"/>
      <point x="511" y="455"/>
      <point x="511" y="352" type="curve" smooth="yes"/>
      <point x="511" y="0" type="line"/>
    </contour>
  </outline>
</glyph>
<glyph name="ae.ss13" format="2">
  <advance width="887"/>
  <anchor x="449" y="500" name="top"/>
  <anchor x="449" y="-0" name="bottom"/>
  <outline>
    <contour>
      <point x="48" y="341" type="line"/>
      <point x="55.04" y="449"/>
      <point x="134.56" y="520"/>
      <point x="292.58" y="520" type="curve" smooth="yes"/>
      <point x="353.92" y="520"/>
      <point x="405.02" y="505.93"/>
      <point x="442.14" y="480.52" type="curve"/>
      <point x="485.87" y="505.98"/>
      <point x="539.72" y="520"/>
      <point x="601" y="520" type="curve" smooth="yes"/>
      <point x="762.31" y="520"/>
      <point x="874" y="417.79"/>
      <point x="863" y="228" type="curve"/>
      <point x="510" y="228" type="line"/>
      <point x="510" y="146"/>
      <point x="537.5" y="110"/>
      <point x="601.69" y="110" type="curve" smooth="yes"/>
      <point x="643.47" y="110"/>
      <point x="669.96" y="132"/>
      <point x="672" y="167" type="curve"/>
      <point x="855" y="167" type="line"/>
      <point x="834.92" y="47"/>
      <point x="743.58" y="-20"/>
      <point x="603.04" y="-20" type="curve" smooth="yes"/>
      <point x="510.223" y="-20"/>
      <point x="434.313" y="12.8718"/>
      <point x="384.555" y="69.6169" type="curve"/>
      <point x="331.206" y="6.72528"/>
      <point x="267.836" y="-20"/>
      <point x="203.836" y="-20" type="curve" smooth="yes"/>
      <point x="101" y="-20"/>
      <point x="34" y="49"/>
      <point x="34" y="146" type="curve" smooth="yes"/>
      <point x="34" y="243"/>
      <point x="101" y="312"/>
      <point x="192.37" y="312" type="curve" smooth="yes"/>
      <point x="250.24" y="312"/>
      <point x="294.91" y="285"/>
      <point x="320" y="238" type="curve"/>
      <point x="320" y="343.38" type="line" smooth="yes"/>
      <point x="320" y="376.82"/>
      <point x="306.38" y="390"/>
      <point x="280.19" y="390" type="curve" smooth="yes"/>
      <point x="255.04" y="390"/>
      <point x="237.23" y="376"/>
      <point x="232" y="341" type="curve"/>
    </contour>
    <contour>
      <point x="320" y="155" type="curve"/>
      <point x="309.89" y="171"/>
      <point x="288.94" y="182"/>
      <point x="262.66" y="182" type="curve" smooth="yes"/>
      <point x="237.61" y="182"/>
      <point x="224" y="172"/>
      <point x="224" y="149.41" type="curve" smooth="yes"/>
      <point x="224" y="126"/>
      <point x="238.62" y="114"/>
      <point x="262.95" y="114" type="curve" smooth="yes"/>
      <point x="291.92" y="114"/>
      <point x="315.95" y="131"/>
    </contour>
    <contour>
      <point x="671" y="328" type="line"/>
      <point x="671" y="366"/>
      <point x="640.42" y="390"/>
      <point x="594.57" y="390" type="curve" smooth="yes"/>
      <point x="544.64" y="390"/>
      <point x="510" y="365"/>
      <point x="510" y="328" type="curve"/>
    </contour>
  </outline>
</glyph>
<glyph name="aogonek.ss02" format="2">
  <advance width="580"/>
  <anchor x="290" y="520" name="top"/>
  <anchor x="280" y="-20" name="bottom"/>
  <outline>
    <contour>
      <point x="346" y="110" type="line"/>
      <point x="329" y="28"/>
      <point x="278" y="-20"/>
      <point x="204" y="-20" type="curve" smooth="yes"/>
      <point x="115" y="-20"/>
      <point x="49" y="49"/>
      <point x="49" y="146" type="curve" smooth="yes"/>
      <point x="49" y="243"/>
      <point x="115" y="312"/>
      <point x="206" y="312" type="curve" smooth="yes"/>
      <point x="279" y="312"/>
      <point x="330" y="268"/>
      <point x="347" y="193" type="curve"/>
      <point x="342" y="124" type="line"/>
      <point x="339" y="154"/>
      <point x="316" y="182"/>
      <point x="279" y="182" type="curve" smooth="yes"/>
      <point x="255" y="182"/>
      <point x="239" y="171"/>
      <point x="239" y="148" type="curve" smooth="yes"/>
      <point x="239" y="126"/>
      <point x="253" y="114"/>
      <point x="281" y="114" type="curve" smooth="yes"/>
      <point x="322" y="114"/>
      <point x="334" y="140"/>
      <point x="333" y="187" type="curve"/>
    </contour>
    <contour>
      <point x="331" y="0" type="line"/>
      <point x="331" y="325" type="line" smooth="yes"/>
      <point x="331" y="374"/>
      <point x="306" y="390"/>
      <point x="265" y="390" type="curve" smooth="yes"/>
      <point x="220" y="390"/>
      <point x="172" y="371"/>
      <point x="146" y="342" type="curve"/>
      <point x="58" y="430" type="line"/>
      <point x="114" y="486"/>
      <point x="184" y="520"/>
      <point x="288" y="520" type="curve" smooth="yes"/>
      <point x="431" y="520"/>
      <point x="521" y="455"/>
      <point x="521" y="352" type="curve" smooth="yes"/>
      <point x="521" y="0" type="line"/>
    </contour>
    <contour>
      <point x="447.637" y="-206" type="line"/>
      <point x="368.25" y="-196"/>
      <point x="317" y="-158"/>
      <point x="317" y="-105" type="curve" smooth="yes"/>
      <point x="317" y="-53"/>
      <point x="365.236" y="-14"/>
      <point x="461.709" y="3" type="curve"/>
      <point x="521" y="0" type="line"/>
      <point x="482.619" y="-24"/>
      <point x="459" y="-67"/>
      <point x="459" y="-104" type="curve" smooth="yes"/>
      <point x="459" y="-138"/>
      <point x="479.672" y="-169"/>
      <point x="522" y="-183" type="curve"/>
    </contour>
  </outline>
</glyph>
<glyph name="aogonek.ss09" format="2">
  <advance width="570"/>
  <anchor x="290" y="520" name="top"/>
  <anchor x="285" y="-20" name="bottom"/>
  <outline>
    <contour>
      <point x="321" y="155" type="curve"/>
      <point x="311" y="171"/>
      <point x="291" y="182"/>
      <point x="265.916" y="182" type="curve" smooth="yes"/>
      <point x="242" y="182"/>
      <point x="229" y="172"/>
      <point x="229" y="149.426" type="curve" smooth="yes"/>
      <point x="229" y="126"/>
      <point x="243" y="114"/>
      <point x="266.285" y="114" type="curve" smooth="yes"/>
      <point x="294" y="114"/>
      <point x="317" y="131"/>
    </contour>
    <contour>
      <point x="321" y="0" type="line"/>
      <point x="321" y="63" type="line"/>
      <point x="297" y="10"/>
      <point x="252" y="-20"/>
      <point x="194" y="-20" type="curve" smooth="yes"/>
      <point x="105" y="-20"/>
      <point x="39" y="49"/>
      <point x="39" y="146" type="curve" smooth="yes"/>
      <point x="39" y="243"/>
      <point x="105" y="312"/>
      <point x="195" y="312" type="curve" smooth="yes"/>
      <point x="252" y="312"/>
      <point x="296" y="285"/>
      <point x="321" y="238" type="curve"/>
      <point x="321" y="343.387" type="line" smooth="yes"/>
      <point x="321" y="376.827"/>
      <point x="308" y="390"/>
      <point x="283" y="390" type="curve" smooth="yes"/>
      <point x="259" y="390"/>
      <point x="242" y="376"/>
      <point x="237" y="341" type="curve"/>
      <point x="53" y="341" type="line"/>
      <point x="60" y="449"/>
      <point x="139" y="520"/>
      <point x="296" y="520" type="curve" smooth="yes"/>
      <point x="427" y="520"/>
      <point x="511" y="455"/>
      <point x="511" y="352" type="curve" smooth="yes"/>
      <point x="511" y="0" type="line"/>
    </contour>
    <contour>
      <point x="438.637" y="-206" type="line"/>
      <point x="359.25" y="-196"/>
      <point x="308" y="-158"/>
      <point x="308" y="-105" type="curve" smooth="yes"/>
      <point x="308" y="-53"/>
      <point x="356.236" y="-14"/>
      <point x="452.709" y="3" type="curve"/>
      <point x="512" y="0" type="line"/>
      <point x="473.619" y="-24"/>
      <point x="450" y="-67"/>
      <point x="450" y="-104" type="curve" smooth="yes"/>
      <point x="450" y="-138"/>
      <point x="470.672" y="-169"/>
      <point x="513" y="-183" type="curve"/>
    </contour>
  </outline>
</glyph>
<glyph name="braceright.case" format="2">
  <advance width="366"/>
  <outline>
    <contour>
      <point x="52" y="-276" type="line"/>
      <point x="188" y="-208.35"/>
      <point x="254" y="-114.229"/>
      <point x="254" y="-15.2055" type="curve" smooth="yes"/>
      <point x="254" y="225" type="line" smooth="yes"/>
      <point x="254" y="296"/>
      <point x="312" y="332"/>
      <point x="344" y="342" type="curve"/>
      <point x="344" y="359" type="line"/>
      <point x="292" y="370"/>
      <point x="254" y="432"/>
      <point x="254" y="482" type="curve" smooth="yes"/>
      <point x="254" y="664.027" type="line" smooth="yes"/>
      <point x="254" y="760.154"/>
      <point x="188" y="863.439"/>
      <point x="52" y="934" type="curve"/>
      <point x="28" y="871" type="line"/>
      <point x="70" y="839.167"/>
      <point x="98" y="792.957"/>
      <point x="98" y="669.731" type="curve" smooth="yes"/>
      <point x="98" y="489" type="line" smooth="yes"/>
      <point x="98" y="425"/>
      <point x="120" y="375"/>
      <point x="224" y="349" type="curve"/>
      <point x="117" y="321"/>
      <point x="98" y="263"/>
      <point x="98" y="199" type="curve" smooth="yes"/>
      <point x="98" y="-22.6208" type="line" smooth="yes"/>
      <point x="98" y="-141.73"/>
      <point x="70" y="-182.735"/>
      <point x="28" y="-213" type="curve"/>
    </contour>
  </outline>
</glyph>
<glyph name="c.ss10" format="2">
  <advance width="585"/>
  <anchor x="316" y="520" name="top"/>
  <anchor x="316" y="-20" name="bottom"/>
  <outline>
    <contour>
      <point x="503" y="220" type="line"/>
      <point x="449" y="139"/>
      <point x="405" y="110"/>
      <point x="336" y="110" type="curve" smooth="yes"/>
      <point x="272" y="110"/>
      <point x="230" y="165"/>
      <point x="230" y="249" type="curve" smooth="yes"/>
      <point x="230" y="334"/>
      <point x="272" y="390"/>
      <point x="336" y="390" type="curve" smooth="yes"/>
      <point x="405" y="390"/>
      <point x="449" y="361"/>
      <point x="503" y="280" type="curve"/>
      <point x="546" y="430" type="line"/>
      <point x="512" y="482"/>
      <point x="420" y="520"/>
      <point x="329" y="520" type="curve" smooth="yes"/>
      <point x="156" y="520"/>
      <point x="39" y="413"/>
      <point x="39" y="255" type="curve" smooth="yes"/>
      <point x="39" y="89"/>
      <point x="154" y="-20"/>
      <point x="329" y="-20" type="curve" smooth="yes"/>
      <point x="420" y="-20"/>
      <point x="512" y="18"/>
      <point x="546" y="70" type="curve"/>
    </contour>
  </outline>
</glyph>
<glyph name="caron.salt" format="2">
  <advance width="135"/>
  <anchor x="0" y="700" name="_topright"/>
  <outline>
    <contour>
      <point x="-5" y="540" type="line"/>
      <point x="85" y="540" type="line"/>
      <point x="140" y="700" type="line"/>
      <point x="30" y="700" type="line"/>
    </contour>
  </outline>
</glyph>
<glyph name="ccedilla.ss09" format="2">
  <advance width="611"/>
  <anchor x="316" y="520" name="top"/>
  <anchor x="326" y="-218" name="bottom"/>
  <outline>
    <contour>
      <point x="386" y="167" type="line"/>
      <point x="378" y="135"/>
      <point x="363" y="110"/>
      <point x="318" y="110" type="curve" smooth="yes"/>
      <point x="262" y="110"/>
      <point x="229" y="166.403"/>
      <point x="229" y="254.029" type="curve" smooth="yes"/>
      <point x="229" y="341.655"/>
      <point x="264" y="390"/>
      <point x="319" y="390" type="curve" smooth="yes"/>
      <point x="356" y="390"/>
      <point x="382" y="371"/>
      <point x="388" y="331" type="curve"/>
      <point x="572" y="331" type="line"/>
      <point x="549" y="452"/>
      <point x="459" y="520"/>
      <point x="320" y="520" type="curve" smooth="yes"/>
      <point x="148" y="520"/>
      <point x="39" y="401"/>
      <point x="39" y="255" type="curve" smooth="yes"/>
      <point x="39" y="100"/>
      <point x="148" y="-20"/>
      <point x="319" y="-20" type="curve" smooth="yes"/>
      <point x="462" y="-20"/>
      <point x="555" y="49"/>
      <point x="570" y="167" type="curve"/>
    </contour>
    <contour>
      <point x="194" y="-205" type="line"/>
      <point x="216" y="-211"/>
      <point x="249" y="-218"/>
      <point x="302" y="-218" type="curve" smooth="yes"/>
      <point x="405" y="-218"/>
      <point x="454" y="-191"/>
      <point x="454" y="-134" type="curve" smooth="yes"/>
      <point x="454" y="-87"/>
      <point x="421" y="-64"/>
      <point x="353" y="-64" type="curve"/>
      <point x="400.423" y="20.4105" type="line"/>
      <point x="298.423" y="20.4105" type="line"/>
      <point x="230" y="-109" type="line"/>
      <point x="246" y="-107"/>
      <point x="271" y="-105"/>
      <point x="288" y="-105" type="curve" smooth="yes"/>
      <point x="318" y="-105"/>
      <point x="334" y="-111"/>
      <point x="334" y="-133" type="curve" smooth="yes"/>
      <point x="334" y="-151"/>
      <point x="323" y="-164"/>
      <point x="286" y="-164" type="curve" smooth="yes"/>
      <point x="265" y="-164"/>
      <point x="236" y="-160"/>
      <point x="220" y="-154" type="curve"/>
    </contour>
  </outline>
</glyph>
<glyph name="cent.ss09" format="2">
  <advance width="611"/>
  <outline>
    <contour>
      <point x="295" y="610" type="line"/>
      <point x="345" y="610" type="line"/>
      <point x="345" y="730" type="line"/>
      <point x="295" y="730" type="line"/>
    </contour>
    <contour>
      <point x="296" y="-31" type="line"/>
      <point x="344" y="-31" type="line"/>
      <point x="344" y="90" type="line"/>
      <point x="296" y="89" type="line"/>
    </contour>
    <contour>
      <point x="386" y="268" type="line"/>
      <point x="378" y="236"/>
      <point x="363" y="211"/>
      <point x="318" y="211" type="curve" smooth="yes"/>
      <point x="262" y="211"/>
      <point x="229" y="267.403"/>
      <point x="229" y="355.029" type="curve" smooth="yes"/>
      <point x="229" y="442.655"/>
      <point x="264" y="491"/>
      <point x="319" y="491" type="curve" smooth="yes"/>
      <point x="356" y="491"/>
      <point x="382" y="472"/>
      <point x="388" y="432" type="curve"/>
      <point x="572" y="432" type="line"/>
      <point x="549" y="553"/>
      <point x="459" y="621"/>
      <point x="320" y="621" type="curve" smooth="yes"/>
      <point x="148" y="621"/>
      <point x="39" y="502"/>
      <point x="39" y="356" type="curve" smooth="yes"/>
      <point x="39" y="201"/>
      <point x="148" y="81"/>
      <point x="319" y="81" type="curve" smooth="yes"/>
      <point x="462" y="81"/>
      <point x="555" y="150"/>
      <point x="570" y="268" type="curve"/>
    </contour>
  </outline>
</glyph>
<glyph name="cent.ss10" format="2">
  <advance width="585"/>
  <outline>
    <contour>
      <point x="293" y="610" type="line"/>
      <point x="343" y="610" type="line"/>
      <point x="343" y="730" type="line"/>
      <point x="293" y="730" type="line"/>
    </contour>
    <contour>
      <point x="294" y="-31" type="line"/>
      <point x="342" y="-31" type="line"/>
      <point x="342" y="90" type="line"/>
      <point x="294" y="89" type="line"/>
    </contour>
    <contour>
      <point x="503" y="321" type="line"/>
      <point x="449" y="240"/>
      <point x="405" y="211"/>
      <point x="336" y="211" type="curve" smooth="yes"/>
      <point x="272" y="211"/>
      <point x="230" y="266"/>
      <point x="230" y="350" type="curve" smooth="yes"/>
      <point x="230" y="435"/>
      <point x="272" y="491"/>
      <point x="336" y="491" type="curve" smooth="yes"/>
      <point x="405" y="491"/>
      <point x="449" y="462"/>
      <point x="503" y="381" type="curve"/>
      <point x="546" y="531" type="line"/>
      <point x="512" y="583"/>
      <point x="420" y="621"/>
      <point x="329" y="621" type="curve" smooth="yes"/>
      <point x="156" y="621"/>
      <point x="39" y="514"/>
      <point x="39" y="356" type="curve" smooth="yes"/>
      <point x="39" y="190"/>
      <point x="154" y="81"/>
      <point x="329" y="81" type="curve" smooth="yes"/>
      <point x="420" y="81"/>
      <point x="512" y="119"/>
      <point x="546" y="171" type="curve"/>
    </contour>
  </outline>
</glyph>
<glyph name="d.ss11" format="2">
  <advance width="635"/>
  <anchor x="285" y="-20" name="bottom"/>
  <anchor x="318" y="750" name="top"/>
  <anchor x="617" y="700" name="topright"/>
  <outline>
    <contour>
      <point x="582" y="-10" type="line"/>
      <point x="582" y="700" type="line"/>
      <point x="392" y="700" type="line"/>
      <point x="392" y="90" type="line"/>
    </contour>
    <contour>
      <point x="242.121" y="-20" type="curve" smooth="yes"/>
      <point x="372" y="-20"/>
      <point x="424" y="113"/>
      <point x="424" y="253" type="curve" smooth="yes"/>
      <point x="424" y="372"/>
      <point x="399" y="520"/>
      <point x="251.691" y="520" type="curve" smooth="yes"/>
      <point x="130" y="520"/>
      <point x="49" y="419"/>
      <point x="49" y="255" type="curve" smooth="yes"/>
      <point x="49" y="88"/>
      <point x="133" y="-20"/>
    </contour>
    <contour>
      <point x="315" y="116" type="curve" smooth="yes"/>
      <point x="267" y="116"/>
      <point x="239" y="167"/>
      <point x="239" y="254" type="curve" smooth="yes"/>
      <point x="239" y="337"/>
      <point x="266" y="383"/>
      <point x="316" y="383" type="curve" smooth="yes"/>
      <point x="361" y="383"/>
      <point x="392" y="337"/>
      <point x="392" y="255" type="curve" smooth="yes"/>
      <point x="392" y="173"/>
      <point x="360" y="116"/>
    </contour>
  </outline>
</glyph>
<glyph name="e.ss12" format="2">
  <advance width="585"/>
  <anchor x="298" y="520" name="top"/>
  <anchor x="298" y="-20" name="bottom"/>
  <anchor x="411" y="-3" name="ogonek"/>
  <outline>
    <contour>
      <point x="371" y="328" type="line"/>
      <point x="371" y="362"/>
      <point x="349.714" y="390"/>
      <point x="299.034" y="390" type="curve" smooth="yes"/>
      <point x="240.245" y="390"/>
      <point x="222" y="356"/>
      <point x="222" y="328" type="curve"/>
    </contour>
    <contour>
      <point x="219" y="222" type="line"/>
      <point x="219" y="151"/>
      <point x="265.372" y="110"/>
      <point x="346.02" y="110" type="curve" smooth="yes"/>
      <point x="406.506" y="110"/>
      <point x="468" y="137"/>
      <point x="521" y="196" type="curve"/>
      <point x="532" y="80" type="line"/>
      <point x="483" y="26"/>
      <point x="411.687" y="-20"/>
      <point x="308.68" y="-20" type="curve" smooth="yes"/>
      <point x="146.521" y="-20"/>
      <point x="28" y="94"/>
      <point x="28" y="255" type="curve" smooth="yes"/>
      <point x="28" y="401"/>
      <point x="131" y="520"/>
      <point x="298" y="520" type="curve" smooth="yes"/>
      <point x="467" y="520"/>
      <point x="573" y="407"/>
      <point x="561" y="222" type="curve"/>
    </contour>
  </outline>
</glyph>
<glyph name="ereversedcyr.ss09" format="2">
  <advance width="611"/>
  <anchor x="305" y="520" name="top"/>
  <anchor x="305" y="-20" name="bottom"/>
  <outline>
    <contour>
      <point x="225" y="195" type="line"/>
      <point x="225" y="305" type="line"/>
      <point x="499" y="305" type="line"/>
      <point x="499" y="195" type="line"/>
    </contour>
    <contour>
      <point x="225" y="167" type="line"/>
      <point x="233" y="135"/>
      <point x="248" y="110"/>
      <point x="293" y="110" type="curve" smooth="yes"/>
      <point x="349" y="110"/>
      <point x="382" y="166.403"/>
      <point x="382" y="254.029" type="curve" smooth="yes"/>
      <point x="382" y="341.655"/>
      <point x="347" y="390"/>
      <point x="292" y="390" type="curve" smooth="yes"/>
      <point x="255" y="390"/>
      <point x="229" y="371"/>
      <point x="223" y="331" type="curve"/>
      <point x="39" y="331" type="line"/>
      <point x="62" y="452"/>
      <point x="152" y="520"/>
      <point x="291" y="520" type="curve" smooth="yes"/>
      <point x="463" y="520"/>
      <point x="572" y="401"/>
      <point x="572" y="255" type="curve" smooth="yes"/>
      <point x="572" y="100"/>
      <point x="463" y="-20"/>
      <point x="292" y="-20" type="curve" smooth="yes"/>
      <point x="149" y="-20"/>
      <point x="56" y="49"/>
      <point x="41" y="167" type="curve"/>
    </contour>
  </outline>
</glyph>
<glyph name="ereversedcyr.ss10" format="2">
  <advance width="585"/>
  <anchor x="293" y="520" name="top"/>
  <anchor x="293" y="-20" name="bottom"/>
  <outline>
    <contour>
      <point x="39" y="70" type="line"/>
      <point x="73" y="18"/>
      <point x="165" y="-20"/>
      <point x="256" y="-20" type="curve" smooth="yes"/>
      <point x="431" y="-20"/>
      <point x="546" y="89"/>
      <point x="546" y="255" type="curve" smooth="yes"/>
      <point x="546" y="413"/>
      <point x="429" y="520"/>
      <point x="256" y="520" type="curve" smooth="yes"/>
      <point x="165" y="520"/>
      <point x="73" y="482"/>
      <point x="39" y="430" type="curve"/>
      <point x="82" y="280" type="line"/>
      <point x="136" y="361"/>
      <point x="180" y="390"/>
      <point x="249" y="390" type="curve" smooth="yes"/>
      <point x="313" y="390"/>
      <point x="355" y="334"/>
      <point x="355" y="249" type="curve" smooth="yes"/>
      <point x="355" y="165"/>
      <point x="313" y="110"/>
      <point x="249" y="110" type="curve" smooth="yes"/>
      <point x="180" y="110"/>
      <point x="136" y="139"/>
      <point x="82" y="220" type="curve"/>
    </contour>
    <contour>
      <point x="174" y="200" type="line"/>
      <point x="448" y="200" type="line"/>
      <point x="448" y="304" type="line"/>
      <point x="174" y="304" type="line"/>
    </contour>
  </outline>
</glyph>
<glyph name="f.ss11" format="2">
  <advance width="423"/>
  <anchor x="250" y="750" name="top"/>
  <anchor x="183" y="-20" name="bottom"/>
  <outline>
    <contour>
      <point x="89" y="0" type="line"/>
      <point x="279" y="0" type="line"/>
      <point x="279" y="370" type="line"/>
      <point x="405" y="370" type="line"/>
      <point x="405" y="500" type="line"/>
      <point x="279" y="500" type="line"/>
      <point x="279" y="521" type="line" smooth="yes"/>
      <point x="279" y="564"/>
      <point x="295" y="586"/>
      <point x="324" y="586" type="curve" smooth="yes"/>
      <point x="339" y="586"/>
      <point x="380" y="584"/>
      <point x="421" y="578" type="curve"/>
      <point x="421" y="708" type="line"/>
      <point x="374" y="715"/>
      <point x="335" y="721"/>
      <point x="277" y="721" type="curve" smooth="yes"/>
      <point x="158" y="721"/>
      <point x="89" y="674"/>
      <point x="89" y="578" type="curve" smooth="yes"/>
      <point x="89" y="500" type="line"/>
      <point x="12" y="500" type="line"/>
      <point x="12" y="370" type="line"/>
      <point x="89" y="370" type="line"/>
    </contour>
  </outline>
</glyph>
<glyph name="f_f.ss11" format="2">
  <advance width="806"/>
  <outline>
    <contour>
      <point x="89" y="0" type="line"/>
      <point x="279" y="0" type="line"/>
      <point x="279" y="370" type="line"/>
      <point x="405" y="370" type="line"/>
      <point x="405" y="500" type="line"/>
      <point x="279" y="500" type="line"/>
      <point x="279" y="521" type="line" smooth="yes"/>
      <point x="279" y="564"/>
      <point x="295" y="586"/>
      <point x="324" y="586" type="curve" smooth="yes"/>
      <point x="339" y="586"/>
      <point x="380" y="584"/>
      <point x="421" y="578" type="curve"/>
      <point x="421" y="708" type="line"/>
      <point x="374" y="715"/>
      <point x="335" y="721"/>
      <point x="277" y="721" type="curve" smooth="yes"/>
      <point x="158" y="721"/>
      <point x="89" y="674"/>
      <point x="89" y="578" type="curve" smooth="yes"/>
      <point x="89" y="500" type="line"/>
      <point x="12" y="500" type="line"/>
      <point x="12" y="370" type="line"/>
      <point x="89" y="370" type="line"/>
    </contour>
    <contour>
      <point x="472" y="0" type="line"/>
      <point x="662" y="0" type="line"/>
      <point x="662" y="370" type="line"/>
      <point x="788" y="370" type="line"/>
      <point x="788" y="500" type="line"/>
      <point x="662" y="500" type="line"/>
      <point x="662" y="521" type="line" smooth="yes"/>
      <point x="662" y="564"/>
      <point x="678" y="586"/>
      <point x="707" y="586" type="curve" smooth="yes"/>
      <point x="722" y="586"/>
      <point x="763" y="584"/>
      <point x="804" y="578" type="curve"/>
      <point x="804" y="708" type="line"/>
      <point x="757" y="715"/>
      <point x="718" y="721"/>
      <point x="660" y="721" type="curve" smooth="yes"/>
      <point x="541" y="721"/>
      <point x="472" y="674"/>
      <point x="472" y="578" type="curve" smooth="yes"/>
      <point x="472" y="500" type="line"/>
      <point x="395" y="500" type="line"/>
      <point x="395" y="370" type="line"/>
      <point x="472" y="370" type="line"/>
    </contour>
  </outline>
</glyph>
<glyph name="five.osf" format="2">
  <advance width="615"/>
  <outline>
    <contour>
      <point x="23" y="-48" type="line"/>
      <point x="93" y="-126"/>
      <point x="169" y="-170"/>
      <point x="281.907" y="-170" type="curve" smooth="yes"/>
      <point x="457" y="-170"/>
      <point x="570" y="-70.2114"/>
      <point x="570" y="80.4693" type="curve" smooth="yes"/>
      <point x="570" y="214.186"/>
      <point x="480" y="302"/>
      <point x="350" y="302" type="curve" smooth="yes"/>
      <point x="306" y="302"/>
      <point x="268" y="292.4"/>
      <point x="244" y="278" type="curve"/>
      <point x="264" y="410" type="line"/>
      <point x="538" y="410" type="line"/>
      <point x="538" y="550" type="line"/>
      <point x="117" y="550" type="line"/>
      <point x="48" y="92" type="line"/>
      <point x="151" y="143"/>
      <point x="222" y="172"/>
      <point x="283" y="172" type="curve" smooth="yes"/>
      <point x="350" y="172"/>
      <point x="380" y="136"/>
      <point x="380" y="76" type="curve" smooth="yes"/>
      <point x="380" y="14"/>
      <point x="348" y="-30"/>
      <point x="272" y="-30" type="curve" smooth="yes"/>
      <point x="211" y="-30"/>
      <point x="177" y="-1"/>
      <point x="128" y="57" type="curve"/>
    </contour>
  </outline>
</glyph>
<glyph name="five.ss12" format="2">
  <advance width="604"/>
  <outline>
    <contour>
      <point x="36" y="228" type="line"/>
      <point x="105" y="153"/>
      <point x="177" y="121"/>
      <point x="259" y="121" type="curve" smooth="yes"/>
      <point x="339" y="121"/>
      <point x="383" y="159"/>
      <point x="383" y="223" type="curve" smooth="yes"/>
      <point x="383" y="280"/>
      <point x="347" y="317"/>
      <point x="257" y="317" type="curve" smooth="yes"/>
      <point x="200" y="317"/>
      <point x="135" y="302"/>
      <point x="41" y="263" type="curve"/>
      <point x="134" y="700" type="line"/>
      <point x="553" y="700" type="line"/>
      <point x="525" y="560" type="line"/>
      <point x="298" y="560" type="line"/>
      <point x="271" y="433" type="line"/>
      <point x="296" y="441"/>
      <point x="317" y="447"/>
      <point x="354" y="447" type="curve" smooth="yes"/>
      <point x="489" y="447"/>
      <point x="574" y="367"/>
      <point x="574" y="226" type="curve" smooth="yes"/>
      <point x="574" y="68"/>
      <point x="468" y="-20"/>
      <point x="301" y="-20" type="curve" smooth="yes"/>
      <point x="176" y="-20"/>
      <point x="93" y="23"/>
      <point x="18" y="104" type="curve"/>
    </contour>
  </outline>
</glyph>
<glyph name="germandbls.ss09" format="2">
  <advance width="710"/>
  <outline>
    <contour>
      <point x="59" y="0" type="line"/>
      <point x="59" y="535" type="line" smooth="yes"/>
      <point x="59" y="685"/>
      <point x="168" y="751"/>
      <point x="316" y="751" type="curve" smooth="yes"/>
      <point x="466" y="751"/>
      <point x="563" y="683"/>
      <point x="563" y="564" type="curve" smooth="yes"/>
      <point x="563" y="450"/>
      <point x="474" y="453"/>
      <point x="474" y="387" type="curve" smooth="yes"/>
      <point x="474" y="288"/>
      <point x="674" y="293"/>
      <point x="674" y="137" type="curve" smooth="yes"/>
      <point x="674" y="34"/>
      <point x="586" y="-20"/>
      <point x="458" y="-20" type="curve" smooth="yes"/>
      <point x="348" y="-20"/>
      <point x="270" y="20"/>
      <point x="262" y="127" type="curve"/>
      <point x="432" y="127" type="line"/>
      <point x="434" y="116"/>
      <point x="441" y="110"/>
      <point x="456" y="110" type="curve" smooth="yes"/>
      <point x="478" y="110"/>
      <point x="484" y="123"/>
      <point x="484" y="137" type="curve" smooth="yes"/>
      <point x="484" y="217"/>
      <point x="284" y="248"/>
      <point x="284" y="375" type="curve" smooth="yes"/>
      <point x="284" y="459"/>
      <point x="373" y="470"/>
      <point x="373" y="555" type="curve" smooth="yes"/>
      <point x="373" y="595"/>
      <point x="354" y="621"/>
      <point x="317" y="621" type="curve" smooth="yes"/>
      <point x="274" y="621"/>
      <point x="249" y="585"/>
      <point x="249" y="497" type="curve" smooth="yes"/>
      <point x="249" y="0" type="line"/>
    </contour>
  </outline>
</glyph>
<glyph name="germandbls.ss12" format="2">
  <advance width="730"/>
  <outline>
    <contour>
      <point x="59" y="0" type="line"/>
      <point x="249" y="0" type="line"/>
      <point x="249" y="518" type="line" smooth="yes"/>
      <point x="249" y="582"/>
      <point x="269" y="620"/>
      <point x="317" y="620" type="curve" smooth="yes"/>
      <point x="359" y="620"/>
      <point x="373" y="591"/>
      <point x="373" y="559" type="curve" smooth="yes"/>
      <point x="373" y="476"/>
      <point x="296" y="469"/>
      <point x="296" y="371" type="curve" smooth="yes"/>
      <point x="296" y="232"/>
      <point x="504" y="210"/>
      <point x="504" y="144" type="curve" smooth="yes"/>
      <point x="504" y="124"/>
      <point x="483" y="110"/>
      <point x="453" y="110" type="curve" smooth="yes"/>
      <point x="398" y="110"/>
      <point x="328" y="137"/>
      <point x="280" y="196" type="curve"/>
      <point x="269" y="80" type="line"/>
      <point x="323" y="14"/>
      <point x="392" y="-20"/>
      <point x="486" y="-20" type="curve" smooth="yes"/>
      <point x="622" y="-20"/>
      <point x="694" y="50"/>
      <point x="694" y="148" type="curve" smooth="yes"/>
      <point x="694" y="303"/>
      <point x="486" y="291"/>
      <point x="486" y="382" type="curve" smooth="yes"/>
      <point x="486" y="441"/>
      <point x="563" y="446"/>
      <point x="563" y="564" type="curve" smooth="yes"/>
      <point x="563" y="687"/>
      <point x="456" y="750"/>
      <point x="315" y="750" type="curve" smooth="yes"/>
      <point x="168" y="750"/>
      <point x="59" y="681"/>
      <point x="59" y="535" type="curve" smooth="yes"/>
    </contour>
  </outline>
</glyph>
<glyph name="h.ss11" format="2">
  <advance width="635"/>
  <anchor x="154" y="750" name="top"/>
  <anchor x="318" y="-20" name="bottom"/>
  <outline>
    <contour>
      <point x="59" y="0" type="line"/>
      <point x="249" y="0" type="line"/>
      <point x="249" y="700" type="line"/>
      <point x="59" y="700" type="line"/>
    </contour>
    <contour>
      <point x="386" y="0" type="line"/>
      <point x="576" y="0" type="line"/>
      <point x="576" y="314" type="line" smooth="yes"/>
      <point x="576" y="458"/>
      <point x="512" y="520"/>
      <point x="418" y="520" type="curve" smooth="yes"/>
      <point x="327" y="520"/>
      <point x="258" y="461"/>
      <point x="231" y="360" type="curve"/>
      <point x="233" y="282" type="line"/>
      <point x="249" y="217" type="line"/>
      <point x="249" y="313.18"/>
      <point x="269" y="380"/>
      <point x="324" y="380" type="curve" smooth="yes"/>
      <point x="364" y="380"/>
      <point x="386" y="344.815"/>
      <point x="386" y="267.407" type="curve" smooth="yes"/>
    </contour>
  </outline>
</glyph>
<glyph name="hardcyr.loclBGR" format="2">
  <advance width="600"/>
  <outline>
    <contour>
      <point x="168" y="220" type="line"/>
      <point x="308.299" y="220" type="line" smooth="yes"/>
      <point x="340.139" y="220"/>
      <point x="368" y="212.5"/>
      <point x="368" y="166.25" type="curve" smooth="yes"/>
      <point x="368" y="126.794"/>
      <point x="359.18" y="110"/>
      <point x="337.459" y="110" type="curve" smooth="yes"/>
      <point x="315.092" y="110"/>
      <point x="306.572" y="122.979"/>
      <point x="306.612" y="158.51" type="curve" smooth="yes"/>
      <point x="307" y="500" type="line"/>
      <point x="117" y="500" type="line"/>
      <point x="116.612" y="167.17" type="line" smooth="yes"/>
      <point x="116.472" y="46.8899"/>
      <point x="182.887" y="-20"/>
      <point x="336.022" y="-20" type="curve" smooth="yes"/>
      <point x="489.025" y="-20"/>
      <point x="558" y="47.8295"/>
      <point x="558" y="170.256" type="curve" smooth="yes"/>
      <point x="558" y="279.574"/>
      <point x="481" y="350"/>
      <point x="360" y="350" type="curve" smooth="yes"/>
      <point x="168" y="350" type="line"/>
    </contour>
    <contour>
      <point x="21" y="368" type="line"/>
      <point x="179" y="368" type="line"/>
      <point x="212" y="500" type="line"/>
      <point x="21" y="500" type="line"/>
    </contour>
  </outline>
</glyph>
<glyph name="lira.ss10" format="2">
  <advance width="660"/>
  <outline>
    <contour>
      <point x="37" y="0" type="line"/>
      <point x="37" y="94" type="line"/>
      <point x="83" y="120"/>
      <point x="119" y="157"/>
      <point x="119" y="225" type="curve"/>
      <point x="41" y="225" type="line"/>
      <point x="41" y="305" type="line"/>
      <point x="119" y="305" type="line"/>
      <point x="119" y="362" type="line"/>
      <point x="41" y="362" type="line"/>
      <point x="41" y="442" type="line"/>
      <point x="119" y="442" type="line"/>
      <point x="119" y="631"/>
      <point x="212" y="720"/>
      <point x="362" y="720" type="curve" smooth="yes"/>
      <point x="490" y="720"/>
      <point x="579" y="662"/>
      <point x="635" y="578" type="curve"/>
      <point x="590" y="414" type="line"/>
      <point x="526" y="525"/>
      <point x="468" y="579"/>
      <point x="379" y="579" type="curve" smooth="yes"/>
      <point x="317" y="579"/>
      <point x="309" y="511"/>
      <point x="309" y="442" type="curve"/>
      <point x="496" y="442" type="line"/>
      <point x="496" y="362" type="line"/>
      <point x="309" y="362" type="line"/>
      <point x="309" y="305" type="line"/>
      <point x="496" y="305" type="line"/>
      <point x="496" y="225" type="line"/>
      <point x="309" y="225" type="line"/>
      <point x="309" y="173"/>
      <point x="290" y="155"/>
      <point x="172" y="140" type="curve"/>
      <point x="627" y="140" type="line"/>
      <point x="627" y="0" type="line"/>
    </contour>
  </outline>
</glyph>
<glyph name="ljecyr.ss08" format="2">
  <advance width="790"/>
  <outline>
    <contour>
      <point x="352" y="0" type="line"/>
      <point x="565" y="0" type="line" smooth="yes"/>
      <point x="699" y="0"/>
      <point x="748" y="68"/>
      <point x="748" y="158" type="curve" smooth="yes"/>
      <point x="748" y="248"/>
      <point x="698" y="315"/>
      <point x="564" y="315" type="curve" smooth="yes"/>
      <point x="378" y="315" type="line"/>
      <point x="378" y="185" type="line"/>
      <point x="510" y="185" type="line" smooth="yes"/>
      <point x="536" y="185"/>
      <point x="558" y="183"/>
      <point x="558" y="158" type="curve" smooth="yes"/>
      <point x="558" y="133"/>
      <point x="536" y="130"/>
      <point x="510" y="130" type="curve" smooth="yes"/>
      <point x="457" y="130" type="line"/>
    </contour>
    <contour>
      <point x="1" y="0" type="line"/>
      <point x="203" y="0" type="line"/>
      <point x="275" y="272" type="line"/>
      <point x="347" y="0" type="line"/>
      <point x="549" y="0" type="line"/>
      <point x="367" y="500" type="line"/>
      <point x="183" y="500" type="line"/>
    </contour>
  </outline>
</glyph>
<glyph name="lslash.ss11" format="2">
  <advance width="272"/>
  <outline>
    <contour>
      <point x="42" y="0" type="line"/>
      <point x="232" y="0" type="line"/>
      <point x="232" y="700" type="line"/>
      <point x="42" y="700" type="line"/>
    </contour>
    <contour>
      <point x="-11" y="201" type="line"/>
      <point x="283" y="401" type="line"/>
      <point x="283" y="527" type="line"/>
      <point x="-11" y="327" type="line"/>
    </contour>
  </outline>
</glyph>
<glyph name="oe.ss09" format="2">
  <advance width="954"/>
  <outline>
    <contour>
      <point x="300" y="-20" type="curve" smooth="yes"/>
      <point x="474" y="-20"/>
      <point x="569" y="79"/>
      <point x="569" y="255" type="curve" smooth="yes"/>
      <point x="569" y="421"/>
      <point x="473" y="520"/>
      <point x="300" y="520" type="curve" smooth="yes"/>
      <point x="137" y="520"/>
      <point x="31" y="421"/>
      <point x="31" y="255" type="curve" smooth="yes"/>
      <point x="31" y="79"/>
      <point x="138" y="-20"/>
    </contour>
    <contour>
      <point x="300" y="120" type="curve" smooth="yes"/>
      <point x="247" y="120"/>
      <point x="221" y="163.643"/>
      <point x="221" y="250.929" type="curve" smooth="yes"/>
      <point x="221" y="337.286"/>
      <point x="246" y="380"/>
      <point x="300" y="380" type="curve" smooth="yes"/>
      <point x="352" y="380"/>
      <point x="379" y="339.143"/>
      <point x="379" y="251.857" type="curve" smooth="yes"/>
      <point x="379" y="163.643"/>
      <point x="352" y="120"/>
    </contour>
    <contour>
      <point x="570" y="328" type="line"/>
      <point x="570" y="365"/>
      <point x="604.43" y="390"/>
      <point x="654.051" y="390" type="curve" smooth="yes"/>
      <point x="699.62" y="390"/>
      <point x="730" y="366"/>
      <point x="730" y="328" type="curve"/>
    </contour>
    <contour>
      <point x="731" y="167" type="line"/>
      <point x="728.975" y="132"/>
      <point x="702.648" y="110"/>
      <point x="661.132" y="110" type="curve" smooth="yes"/>
      <point x="597.34" y="110"/>
      <point x="570" y="146"/>
      <point x="570" y="228" type="curve"/>
      <point x="922" y="228" type="line"/>
      <point x="933" y="417.79"/>
      <point x="821.318" y="520"/>
      <point x="660" y="520" type="curve" smooth="yes"/>
      <point x="491.4" y="520"/>
      <point x="379" y="414"/>
      <point x="379" y="255" type="curve" smooth="yes"/>
      <point x="379" y="90"/>
      <point x="492.223" y="-20"/>
      <point x="662.058" y="-20" type="curve" smooth="yes"/>
      <point x="802.583" y="-20"/>
      <point x="893.925" y="47"/>
      <point x="914" y="167" type="curve"/>
    </contour>
  </outline>
</glyph>
<glyph name="oe.ss12" format="2">
  <advance width="944"/>
  <outline>
    <contour>
      <point x="300" y="-20" type="curve" smooth="yes"/>
      <point x="474" y="-20"/>
      <point x="569" y="79"/>
      <point x="569" y="255" type="curve" smooth="yes"/>
      <point x="569" y="421"/>
      <point x="473" y="520"/>
      <point x="300" y="520" type="curve" smooth="yes"/>
      <point x="137" y="520"/>
      <point x="31" y="421"/>
      <point x="31" y="255" type="curve" smooth="yes"/>
      <point x="31" y="79"/>
      <point x="138" y="-20"/>
    </contour>
    <contour>
      <point x="300" y="120" type="curve" smooth="yes"/>
      <point x="247" y="120"/>
      <point x="221" y="163.643"/>
      <point x="221" y="250.929" type="curve" smooth="yes"/>
      <point x="221" y="337.286"/>
      <point x="246" y="380"/>
      <point x="300" y="380" type="curve" smooth="yes"/>
      <point x="352" y="380"/>
      <point x="379" y="339.143"/>
      <point x="379" y="251.857" type="curve" smooth="yes"/>
      <point x="379" y="163.643"/>
      <point x="352" y="120"/>
    </contour>
    <contour>
      <point x="573" y="328" type="line"/>
      <point x="573" y="356"/>
      <point x="591.245" y="390"/>
      <point x="650.034" y="390" type="curve" smooth="yes"/>
      <point x="700.714" y="390"/>
      <point x="722" y="362"/>
      <point x="722" y="328" type="curve"/>
    </contour>
    <contour>
      <point x="872" y="196" type="line"/>
      <point x="819" y="137"/>
      <point x="757.506" y="110"/>
      <point x="697.02" y="110" type="curve" smooth="yes"/>
      <point x="616.372" y="110"/>
      <point x="570" y="151"/>
      <point x="570" y="222" type="curve"/>
      <point x="912" y="222" type="line"/>
      <point x="923.785" y="403.69"/>
      <point x="821.136" y="520"/>
      <point x="649" y="520" type="curve" smooth="yes"/>
      <point x="482" y="520"/>
      <point x="379" y="401"/>
      <point x="379" y="255" type="curve" smooth="yes"/>
      <point x="379" y="94"/>
      <point x="497.521" y="-20"/>
      <point x="659.68" y="-20" type="curve" smooth="yes"/>
      <point x="762.687" y="-20"/>
      <point x="834" y="26"/>
      <point x="883" y="80" type="curve"/>
    </contour>
  </outline>
</glyph>
<glyph name="question.ss10" format="2">
  <advance width="551"/>
  <outline>
    <contour>
      <point x="246" y="-20" type="curve" smooth="yes"/>
      <point x="305" y="-20"/>
      <point x="349" y="26"/>
      <point x="349" y="81" type="curve" smooth="yes"/>
      <point x="349" y="140"/>
      <point x="305" y="184"/>
      <point x="246" y="184" type="curve" smooth="yes"/>
      <point x="188" y="184"/>
      <point x="145" y="140"/>
      <point x="145" y="81" type="curve" smooth="yes"/>
      <point x="145" y="26"/>
      <point x="188" y="-20"/>
    </contour>
    <contour>
      <point x="152" y="250" type="line"/>
      <point x="342" y="250" type="line"/>
      <point x="342" y="334" type="line"/>
      <point x="448" y="390"/>
      <point x="519" y="480"/>
      <point x="519" y="567" type="curve" smooth="yes"/>
      <point x="519" y="688"/>
      <point x="427" y="767"/>
      <point x="290" y="767" type="curve" smooth="yes"/>
      <point x="168" y="767"/>
      <point x="83" y="709"/>
      <point x="27" y="625" type="curve"/>
      <point x="72" y="461" type="line"/>
      <point x="144" y="577"/>
      <point x="194" y="626"/>
      <point x="270" y="626" type="curve" smooth="yes"/>
      <point x="312" y="626"/>
      <point x="329" y="602"/>
      <point x="329" y="560" type="curve" smooth="yes"/>
      <point x="329" y="491"/>
      <point x="275" y="430"/>
      <point x="152" y="365" type="curve"/>
    </contour>
  </outline>
</glyph>
<glyph name="question.ss12" format="2">
  <advance width="551"/>
  <outline>
    <contour>
      <point x="246" y="-20" type="curve" smooth="yes"/>
      <point x="305" y="-20"/>
      <point x="349" y="26"/>
      <point x="349" y="81" type="curve" smooth="yes"/>
      <point x="349" y="140"/>
      <point x="305" y="184"/>
      <point x="246" y="184" type="curve" smooth="yes"/>
      <point x="188" y="184"/>
      <point x="145" y="140"/>
      <point x="145" y="81" type="curve" smooth="yes"/>
      <point x="145" y="26"/>
      <point x="188" y="-20"/>
    </contour>
    <contour>
      <point x="152" y="250" type="line"/>
      <point x="342" y="250" type="line"/>
      <point x="342" y="334" type="line"/>
      <point x="448" y="390"/>
      <point x="519" y="480"/>
      <point x="519" y="568" type="curve" smooth="yes"/>
      <point x="519" y="689"/>
      <point x="433" y="768"/>
      <point x="290" y="768" type="curve" smooth="yes"/>
      <point x="184" y="768"/>
      <point x="102" y="725"/>
      <point x="28" y="644" type="curve"/>
      <point x="41" y="520" type="line"/>
      <point x="107" y="594"/>
      <point x="180" y="626"/>
      <point x="266" y="626" type="curve" smooth="yes"/>
      <point x="312" y="626"/>
      <point x="331" y="593"/>
      <point x="331" y="551" type="curve" smooth="yes"/>
      <point x="331" y="482"/>
      <point x="277" y="426"/>
      <point x="152" y="365" type="curve"/>
    </contour>
  </outline>
</glyph>
<glyph name="s.ss09" format="2">
  <advance width="510"/>
  <anchor x="265" y="-20" name="bottom"/>
  <anchor x="245" y="520" name="top"/>
  <outline>
    <contour>
      <point x="30" y="150" type="line"/>
      <point x="40" y="31.3018"/>
      <point x="138" y="-20"/>
      <point x="259" y="-20" type="curve" smooth="yes"/>
      <point x="393" y="-20"/>
      <point x="474" y="43"/>
      <point x="474" y="150" type="curve" smooth="yes"/>
      <point x="474" y="244"/>
      <point x="412" y="309"/>
      <point x="271" y="327" type="curve" smooth="yes"/>
      <point x="252" y="329"/>
      <point x="220" y="332.05"/>
      <point x="220" y="362.55" type="curve" smooth="yes"/>
      <point x="220" y="379.833"/>
      <point x="231" y="390"/>
      <point x="252" y="390" type="curve" smooth="yes"/>
      <point x="278" y="390"/>
      <point x="288" y="372.564"/>
      <point x="291" y="350" type="curve"/>
      <point x="474" y="350" type="line"/>
      <point x="467" y="460.651"/>
      <point x="368" y="520"/>
      <point x="247" y="520" type="curve" smooth="yes"/>
      <point x="121" y="520"/>
      <point x="30" y="455"/>
      <point x="30" y="348" type="curve" smooth="yes"/>
      <point x="30" y="256"/>
      <point x="96" y="188"/>
      <point x="220" y="176" type="curve" smooth="yes"/>
      <point x="268" y="171"/>
      <point x="286" y="159.817"/>
      <point x="286" y="136.433" type="curve" smooth="yes"/>
      <point x="286" y="117.117"/>
      <point x="273" y="110"/>
      <point x="254" y="110" type="curve" smooth="yes"/>
      <point x="229" y="110"/>
      <point x="213" y="124.342"/>
      <point x="213" y="150" type="curve"/>
    </contour>
  </outline>
</glyph>
<glyph name="scedilla.ss09" format="2">
  <advance width="510"/>
  <anchor x="245" y="520" name="top"/>
  <anchor x="245" y="-218" name="bottom"/>
  <outline>
    <contour>
      <point x="30" y="150" type="line"/>
      <point x="40" y="31.3018"/>
      <point x="138" y="-20"/>
      <point x="259" y="-20" type="curve" smooth="yes"/>
      <point x="393" y="-20"/>
      <point x="474" y="43"/>
      <point x="474" y="150" type="curve" smooth="yes"/>
      <point x="474" y="244"/>
      <point x="412" y="309"/>
      <point x="271" y="327" type="curve" smooth="yes"/>
      <point x="252" y="329"/>
      <point x="220" y="332.05"/>
      <point x="220" y="362.55" type="curve" smooth="yes"/>
      <point x="220" y="379.833"/>
      <point x="231" y="390"/>
      <point x="252" y="390" type="curve" smooth="yes"/>
      <point x="278" y="390"/>
      <point x="288" y="372.564"/>
      <point x="291" y="350" type="curve"/>
      <point x="474" y="350" type="line"/>
      <point x="467" y="460.651"/>
      <point x="368" y="520"/>
      <point x="247" y="520" type="curve" smooth="yes"/>
      <point x="121" y="520"/>
      <point x="30" y="455"/>
      <point x="30" y="348" type="curve" smooth="yes"/>
      <point x="30" y="256"/>
      <point x="96" y="188"/>
      <point x="220" y="176" type="curve" smooth="yes"/>
      <point x="268" y="171"/>
      <point x="286" y="159.817"/>
      <point x="286" y="136.433" type="curve" smooth="yes"/>
      <point x="286" y="117.117"/>
      <point x="273" y="110"/>
      <point x="254" y="110" type="curve" smooth="yes"/>
      <point x="229" y="110"/>
      <point x="213" y="124.342"/>
      <point x="213" y="150" type="curve"/>
    </contour>
    <contour>
      <point x="113" y="-205" type="line"/>
      <point x="135" y="-211"/>
      <point x="168" y="-218"/>
      <point x="221" y="-218" type="curve" smooth="yes"/>
      <point x="324" y="-218"/>
      <point x="373" y="-191"/>
      <point x="373" y="-134" type="curve" smooth="yes"/>
      <point x="373" y="-87"/>
      <point x="340" y="-64"/>
      <point x="272" y="-64" type="curve"/>
      <point x="319.423" y="20.4105" type="line"/>
      <point x="217.423" y="20.4105" type="line"/>
      <point x="149" y="-109" type="line"/>
      <point x="165" y="-107"/>
      <point x="190" y="-105"/>
      <point x="207" y="-105" type="curve" smooth="yes"/>
      <point x="237" y="-105"/>
      <point x="253" y="-111"/>
      <point x="253" y="-133" type="curve" smooth="yes"/>
      <point x="253" y="-151"/>
      <point x="242" y="-164"/>
      <point x="205" y="-164" type="curve" smooth="yes"/>
      <point x="184" y="-164"/>
      <point x="155" y="-160"/>
      <point x="139" y="-154" type="curve"/>
    </contour>
  </outline>
</glyph>
<glyph name="sigmafinal.ss09" format="2">
  <advance width="610"/>
  <anchor x="305" y="519" name="topgr"/>
  <outline>
    <contour>
      <point x="519" y="-200" type="line"/>
      <point x="550" y="-168"/>
      <point x="571" y="-117"/>
      <point x="571" y="-61" type="curve" smooth="yes"/>
      <point x="571" y="71"/>
      <point x="457" y="111"/>
      <point x="359" y="111" type="curve" smooth="yes"/>
      <point x="262" y="111"/>
      <point x="219" y="153.151"/>
      <point x="219" y="249.496" type="curve" smooth="yes"/>
      <point x="219" y="345.842"/>
      <point x="254" y="390"/>
      <point x="311" y="390" type="curve" smooth="yes"/>
      <point x="346" y="390"/>
      <point x="372" y="371"/>
      <point x="378" y="331" type="curve"/>
      <point x="562" y="331" type="line"/>
      <point x="539" y="452"/>
      <point x="449" y="520"/>
      <point x="315" y="520" type="curve" smooth="yes"/>
      <point x="138" y="520"/>
      <point x="29" y="401"/>
      <point x="29" y="251" type="curve" smooth="yes"/>
      <point x="29" y="100"/>
      <point x="138" y="-20"/>
      <point x="292" y="-20" type="curve" smooth="yes"/>
      <point x="359" y="-20"/>
      <point x="381" y="-43"/>
      <point x="381" y="-90" type="curve" smooth="yes"/>
      <point x="381" y="-125"/>
      <point x="369" y="-154"/>
      <point x="337" y="-200" type="curve"/>
    </contour>
  </outline>
</glyph>
<glyph name="sigmafinal.ss12" format="2">
  <advance width="580"/>
  <anchor x="297" y="519" name="topgr"/>
  <outline>
    <contour>
      <point x="489" y="-200" type="line"/>
      <point x="511" y="-176"/>
      <point x="541" y="-127"/>
      <point x="541" y="-66" type="curve" smooth="yes"/>
      <point x="541" y="34.2306"/>
      <point x="457.291" y="111"/>
      <point x="348" y="111" type="curve" smooth="yes"/>
      <point x="255" y="111"/>
      <point x="219" y="170"/>
      <point x="219" y="254" type="curve" smooth="yes"/>
      <point x="219" y="337"/>
      <point x="255" y="390"/>
      <point x="336" y="390" type="curve" smooth="yes"/>
      <point x="390" y="390"/>
      <point x="437" y="367"/>
      <point x="510" y="315" type="curve"/>
      <point x="521" y="431" type="line"/>
      <point x="464.835" y="490.468"/>
      <point x="392.831" y="520"/>
      <point x="304" y="520" type="curve" smooth="yes"/>
      <point x="124" y="520"/>
      <point x="29" y="401"/>
      <point x="29" y="257" type="curve" smooth="yes"/>
      <point x="29" y="120"/>
      <point x="115" y="-19"/>
      <point x="257" y="-19" type="curve" smooth="yes"/>
      <point x="329" y="-19"/>
      <point x="351" y="-54"/>
      <point x="351" y="-99" type="curve" smooth="yes"/>
      <point x="351" y="-142"/>
      <point x="331" y="-165"/>
      <point x="307" y="-200" type="curve"/>
    </contour>
  </outline>
</glyph>
<glyph name="six.osf.ss10" format="2">
  <advance width="667"/>
  <outline>
    <contour>
      <point x="239" y="225" type="curve" smooth="yes"/>
      <point x="239" y="164"/>
      <point x="274" y="121"/>
      <point x="338" y="121" type="curve" smooth="yes"/>
      <point x="401" y="121"/>
      <point x="434" y="163"/>
      <point x="434" y="228" type="curve" smooth="yes"/>
      <point x="434" y="288"/>
      <point x="406" y="326"/>
      <point x="340" y="326" type="curve" smooth="yes"/>
      <point x="272" y="326"/>
      <point x="239" y="285"/>
    </contour>
    <contour>
      <point x="578.01" y="414" type="line"/>
      <point x="506.13" y="534.72"/>
      <point x="431.25" y="580"/>
      <point x="364.37" y="580" type="curve" smooth="yes"/>
      <point x="267.95" y="580"/>
      <point x="218.44" y="521.91"/>
      <point x="210.7" y="415.06" type="curve"/>
      <point x="249.52" y="441.62"/>
      <point x="303.41" y="459"/>
      <point x="368" y="459" type="curve" smooth="yes"/>
      <point x="520" y="459"/>
      <point x="625" y="363"/>
      <point x="625" y="226" type="curve" smooth="yes"/>
      <point x="625" y="88"/>
      <point x="520" y="-20"/>
      <point x="350" y="-20" type="curve" smooth="yes"/>
      <point x="156" y="-20"/>
      <point x="38" y="118"/>
      <point x="38" y="346" type="curve" smooth="yes"/>
      <point x="38" y="577"/>
      <point x="157" y="720"/>
      <point x="349" y="720" type="curve" smooth="yes"/>
      <point x="469.11" y="720"/>
      <point x="564.95" y="664"/>
      <point x="623.01" y="578" type="curve"/>
    </contour>
  </outline>
</glyph>
<glyph name="six.ss10" format="2">
  <advance width="667"/>
  <outline>
    <contour>
      <point x="239" y="225" type="curve" smooth="yes"/>
      <point x="239" y="164"/>
      <point x="274" y="121"/>
      <point x="338" y="121" type="curve" smooth="yes"/>
      <point x="401" y="121"/>
      <point x="434" y="163"/>
      <point x="434" y="228" type="curve" smooth="yes"/>
      <point x="434" y="288"/>
      <point x="406" y="326"/>
      <point x="340" y="326" type="curve" smooth="yes"/>
      <point x="272" y="326"/>
      <point x="239" y="285"/>
    </contour>
    <contour>
      <point x="578.01" y="414" type="line"/>
      <point x="506.13" y="534.72"/>
      <point x="431.25" y="580"/>
      <point x="364.37" y="580" type="curve" smooth="yes"/>
      <point x="267.95" y="580"/>
      <point x="218.44" y="521.91"/>
      <point x="210.7" y="415.06" type="curve"/>
      <point x="249.52" y="441.62"/>
      <point x="303.41" y="459"/>
      <point x="368" y="459" type="curve" smooth="yes"/>
      <point x="514.59" y="459"/>
      <point x="624.657" y="362.146"/>
      <point x="624.9" y="232.69" type="curve" smooth="yes"/>
      <point x="625.201" y="72.1654"/>
      <point x="501.827" y="-20"/>
      <point x="350" y="-20" type="curve" smooth="yes"/>
      <point x="156" y="-20"/>
      <point x="38" y="118"/>
      <point x="38" y="346" type="curve" smooth="yes"/>
      <point x="38" y="577"/>
      <point x="157" y="720"/>
      <point x="349" y="720" type="curve" smooth="yes"/>
      <point x="469.11" y="720"/>
      <point x="564.95" y="664"/>
      <point x="623.01" y="578" type="curve"/>
    </contour>
  </outline>
</glyph>
<glyph name="six.ss12" format="2">
  <advance width="650"/>
  <outline>
    <contour>
      <point x="234" y="225" type="curve" smooth="yes"/>
      <point x="234" y="164"/>
      <point x="269" y="121"/>
      <point x="333" y="121" type="curve" smooth="yes"/>
      <point x="396" y="121"/>
      <point x="429" y="163"/>
      <point x="429" y="228" type="curve" smooth="yes"/>
      <point x="429" y="288"/>
      <point x="401" y="326"/>
      <point x="335" y="326" type="curve" smooth="yes"/>
      <point x="267" y="326"/>
      <point x="234" y="285"/>
    </contour>
    <contour>
      <point x="607" y="472" type="line"/>
      <point x="536" y="548"/>
      <point x="450" y="579"/>
      <point x="367" y="579" type="curve" smooth="yes"/>
      <point x="265" y="579"/>
      <point x="188" y="515"/>
      <point x="182" y="396" type="curve"/>
      <point x="221" y="433"/>
      <point x="284" y="459"/>
      <point x="363" y="459" type="curve" smooth="yes"/>
      <point x="515" y="459"/>
      <point x="620" y="363"/>
      <point x="620" y="226" type="curve" smooth="yes"/>
      <point x="620" y="88"/>
      <point x="515" y="-20"/>
      <point x="345" y="-20" type="curve" smooth="yes"/>
      <point x="151" y="-20"/>
      <point x="33" y="118"/>
      <point x="33" y="346" type="curve" smooth="yes"/>
      <point x="33" y="577"/>
      <point x="152" y="720"/>
      <point x="344" y="720" type="curve" smooth="yes"/>
      <point x="454" y="720"/>
      <point x="543" y="679"/>
      <point x="620" y="596" type="curve"/>
    </contour>
  </outline>
</glyph>
<glyph name="sterling.ss12" format="2">
  <advance width="600"/>
  <outline>
    <contour>
      <point x="50" y="80" type="line"/>
      <point x="139.77" y="129.05"/>
      <point x="176.42" y="165.27"/>
      <point x="154.44" y="256" type="curve"/>
      <point x="31" y="256" type="line"/>
      <point x="31" y="381" type="line"/>
      <point x="98.96" y="381" type="line"/>
      <point x="77" y="423.99"/>
      <point x="58" y="466.99"/>
      <point x="58" y="516" type="curve" smooth="yes"/>
      <point x="58" y="630"/>
      <point x="160.79" y="720"/>
      <point x="306.5" y="720" type="curve" smooth="yes"/>
      <point x="402.31" y="720"/>
      <point x="484.15" y="681"/>
      <point x="562" y="595" type="curve"/>
      <point x="550" y="469" type="line"/>
      <point x="465.72" y="552"/>
      <point x="403.51" y="580"/>
      <point x="335.28" y="580" type="curve" smooth="yes"/>
      <point x="266.05" y="580"/>
      <point x="248" y="552"/>
      <point x="248" y="505" type="curve" smooth="yes"/>
      <point x="248" y="455.92"/>
      <point x="268.36" y="416.24"/>
      <point x="293.97" y="381" type="curve"/>
      <point x="461" y="381" type="line"/>
      <point x="461" y="256" type="line"/>
      <point x="344.06" y="256" type="line"/>
      <point x="350.85" y="220.27"/>
      <point x="351.13" y="188.48"/>
      <point x="315" y="154" type="curve"/>
      <point x="361" y="159"/>
      <point x="354" y="120"/>
      <point x="401" y="120" type="curve" smooth="yes"/>
      <point x="439" y="120"/>
      <point x="496" y="144"/>
      <point x="549" y="203" type="curve"/>
      <point x="560" y="80" type="line"/>
      <point x="511" y="26"/>
      <point x="440" y="-20"/>
      <point x="357" y="-20" type="curve" smooth="yes"/>
      <point x="254" y="-20"/>
      <point x="256" y="50"/>
      <point x="180" y="50" type="curve" smooth="yes"/>
      <point x="153" y="50"/>
      <point x="120" y="41"/>
      <point x="50" y="-10" type="curve"/>
    </contour>
  </outline>
</glyph>
<glyph name="thorn.ss11" format="2">
  <advance width="635"/>
  <outline>
    <contour>
      <point x="60" y="-200" type="line"/>
      <point x="250" y="-200" type="line"/>
      <point x="250" y="61.34" type="line"/>
      <point x="277.26" y="8.66"/>
      <point x="318.95" y="-20"/>
      <point x="373" y="-20" type="curve" smooth="yes"/>
      <point x="509" y="-20"/>
      <point x="593" y="99"/>
      <point x="593" y="255" type="curve" smooth="yes"/>
      <point x="593" y="411"/>
      <point x="523" y="520"/>
      <point x="385" y="520" type="curve" smooth="yes"/>
      <point x="323.42" y="520"/>
      <point x="278.47" y="493.61"/>
      <point x="250" y="442.53" type="curve"/>
      <point x="249.81" y="700" type="line"/>
      <point x="60.41" y="700" type="line"/>
    </contour>
    <contour>
      <point x="322" y="116" type="curve" smooth="yes"/>
      <point x="276.968" y="116"/>
      <point x="250" y="168.062"/>
      <point x="250" y="255" type="curve" smooth="yes"/>
      <point x="250" y="335.421"/>
      <point x="278.25" y="383"/>
      <point x="326" y="383" type="curve" smooth="yes"/>
      <point x="374" y="383"/>
      <point x="403" y="334"/>
      <point x="403" y="254" type="curve" smooth="yes"/>
      <point x="403" y="167"/>
      <point x="373" y="116"/>
    </contour>
  </outline>
</glyph>
<glyph name="three.ss09" format="2">
  <advance width="550"/>
  <outline>
    <contour>
      <point x="7" y="502" type="line"/>
      <point x="29" y="627"/>
      <point x="109" y="720"/>
      <point x="267" y="720" type="curve" smooth="yes"/>
      <point x="425" y="720"/>
      <point x="500" y="621.575"/>
      <point x="500" y="512.453" type="curve" smooth="yes"/>
      <point x="500" y="390.492"/>
      <point x="406" y="337"/>
      <point x="192" y="337" type="curve"/>
      <point x="192" y="427" type="line"/>
      <point x="276" y="427"/>
      <point x="309" y="448.543"/>
      <point x="309" y="507.189" type="curve" smooth="yes"/>
      <point x="309" y="549.079"/>
      <point x="292" y="579"/>
      <point x="261" y="579" type="curve" smooth="yes"/>
      <point x="226" y="579"/>
      <point x="207" y="547"/>
      <point x="197" y="502" type="curve"/>
    </contour>
    <contour>
      <point x="200" y="198" type="line"/>
      <point x="211" y="150"/>
      <point x="232" y="121"/>
      <point x="271" y="121" type="curve" smooth="yes"/>
      <point x="307" y="121"/>
      <point x="329" y="150.31"/>
      <point x="329" y="200.724" type="curve" smooth="yes"/>
      <point x="329" y="267.552"/>
      <point x="290" y="291"/>
      <point x="192" y="291" type="curve"/>
      <point x="192" y="381" type="line"/>
      <point x="420" y="381"/>
      <point x="520" y="325.543"/>
      <point x="520" y="199.697" type="curve" smooth="yes"/>
      <point x="520" y="83.4495"/>
      <point x="434" y="-20"/>
      <point x="271" y="-20" type="curve" smooth="yes"/>
      <point x="112" y="-20"/>
      <point x="32" y="73"/>
      <point x="10" y="198" type="curve"/>
    </contour>
  </outline>
</glyph>
<glyph name="two.ss09" format="2">
  <advance width="612"/>
  <outline>
    <contour>
      <point x="45" y="0" type="line"/>
      <point x="566" y="0" type="line"/>
      <point x="566" y="140" type="line"/>
      <point x="45" y="140" type="line"/>
    </contour>
    <contour>
      <point x="45" y="104" type="line"/>
      <point x="443" y="181"/>
      <point x="565" y="281.47"/>
      <point x="565" y="472.687" type="curve" smooth="yes"/>
      <point x="565" y="634.735"/>
      <point x="477" y="719"/>
      <point x="325" y="719" type="curve" smooth="yes"/>
      <point x="160" y="719"/>
      <point x="73" y="626"/>
      <point x="49" y="502" type="curve"/>
      <point x="239" y="502" type="line"/>
      <point x="253" y="556"/>
      <point x="277" y="579"/>
      <point x="316" y="579" type="curve" smooth="yes"/>
      <point x="360" y="579"/>
      <point x="376" y="546.52"/>
      <point x="376" y="492" type="curve" smooth="yes"/>
      <point x="376" y="364.4"/>
      <point x="290" y="289"/>
      <point x="45" y="249" type="curve"/>
    </contour>
  </outline>
</glyph>
<glyph name="two.ss12" format="2">
  <advance width="612"/>
  <outline>
    <contour>
      <point x="45" y="0" type="line"/>
      <point x="566" y="0" type="line"/>
      <point x="566" y="140" type="line"/>
      <point x="45" y="140" type="line"/>
    </contour>
    <contour>
      <point x="45" y="104" type="line"/>
      <point x="443" y="181"/>
      <point x="565" y="281.455"/>
      <point x="565" y="472.643" type="curve" smooth="yes"/>
      <point x="565" y="635.747"/>
      <point x="476" y="720"/>
      <point x="322" y="720" type="curve" smooth="yes"/>
      <point x="208" y="720"/>
      <point x="124" y="677"/>
      <point x="50" y="596" type="curve"/>
      <point x="63" y="472" type="line"/>
      <point x="130" y="547"/>
      <point x="207" y="579"/>
      <point x="284" y="579" type="curve" smooth="yes"/>
      <point x="357" y="579"/>
      <point x="376" y="545.36"/>
      <point x="376" y="487.36" type="curve" smooth="yes"/>
      <point x="376" y="364.4"/>
      <point x="290" y="289"/>
      <point x="45" y="249" type="curve"/>
    </contour>
  </outline>
</glyph>
<glyph name="y.ss04" format="2">
  <advance width="565"/>
  <anchor x="454" y="0" name="bottom"/>
  <anchor x="283" y="520" name="top"/>
  <outline>
    <contour>
      <point x="16" y="-198" type="line"/>
      <point x="63" y="-212"/>
      <point x="92" y="-221"/>
      <point x="164" y="-221" type="curve" smooth="yes"/>
      <point x="283" y="-221"/>
      <point x="325" y="-168"/>
      <point x="356" y="-78" type="curve" smooth="yes"/>
      <point x="555" y="500" type="line"/>
      <point x="354" y="500" type="line"/>
      <point x="218" y="-18" type="line" smooth="yes"/>
      <point x="203.624" y="-72.7569"/>
      <point x="152" y="-85"/>
      <point x="113" y="-85" type="curve" smooth="yes"/>
      <point x="98" y="-85"/>
      <point x="72" y="-82"/>
      <point x="53" y="-73" type="curve"/>
    </contour>
    <contour>
      <point x="176" y="0" type="line"/>
      <point x="333" y="0" type="line"/>
      <point x="212" y="500" type="line"/>
      <point x="11" y="500" type="line"/>
    </contour>
  </outline>
</glyph>
<glyph name="y.ss12" format="2">
  <advance width="615"/>
  <anchor x="307" y="520" name="top"/>
  <anchor x="550" y="-99" name="bottom"/>
  <outline>
    <contour>
      <point x="389" y="124" type="curve"/>
      <point x="372" y="293" type="line"/>
      <point x="372" y="192.407"/>
      <point x="353" y="150"/>
      <point x="309" y="150" type="curve" smooth="yes"/>
      <point x="262" y="150"/>
      <point x="240" y="176.733"/>
      <point x="240" y="243.352" type="curve" smooth="yes"/>
      <point x="240" y="500" type="line"/>
      <point x="50" y="500" type="line"/>
      <point x="50" y="226" type="line" smooth="yes"/>
      <point x="50" y="86.0013"/>
      <point x="121.075" y="20"/>
      <point x="252" y="20" type="curve" smooth="yes"/>
      <point x="357" y="20"/>
      <point x="383" y="79"/>
    </contour>
    <contour>
      <point x="48" y="-33" type="line"/>
      <point x="58.2228" y="-160.785"/>
      <point x="139.604" y="-220"/>
      <point x="305" y="-220" type="curve" smooth="yes"/>
      <point x="479.36" y="-220"/>
      <point x="562" y="-147.645"/>
      <point x="562" y="32" type="curve" smooth="yes"/>
      <point x="562" y="500" type="line"/>
      <point x="372" y="500" type="line"/>
      <point x="372" y="41" type="line" smooth="yes"/>
      <point x="372" y="-55.0139"/>
      <point x="351.899" y="-90"/>
      <point x="296.735" y="-90" type="curve" smooth="yes"/>
      <point x="252.4" y="-90"/>
      <point x="233.18" y="-73.3341"/>
      <point x="231" y="-33" type="curve"/>
    </contour>
  </outline>
</glyph>
<glyph name="yucyr.loclBGR.ss11" format="2">
  <advance width="877"/>
  <anchor x="438" y="-20" name="bottom"/>
  <anchor x="438" y="520" name="top"/>
  <outline>
    <contour>
      <point x="53" y="0" type="line"/>
      <point x="243" y="0" type="line"/>
      <point x="243" y="700" type="line"/>
      <point x="53" y="700" type="line"/>
    </contour>
    <contour>
      <point x="228" y="189" type="line"/>
      <point x="364" y="189" type="line"/>
      <point x="364" y="321" type="line"/>
      <point x="228" y="321" type="line"/>
    </contour>
    <contour>
      <point x="569" y="-20" type="curve" smooth="yes"/>
      <point x="743" y="-20"/>
      <point x="838" y="79"/>
      <point x="838" y="255" type="curve" smooth="yes"/>
      <point x="838" y="421"/>
      <point x="742" y="520"/>
      <point x="569" y="520" type="curve" smooth="yes"/>
      <point x="406" y="520"/>
      <point x="300" y="421"/>
      <point x="300" y="255" type="curve" smooth="yes"/>
      <point x="300" y="79"/>
      <point x="407" y="-20"/>
    </contour>
    <contour>
      <point x="569" y="120" type="curve" smooth="yes"/>
      <point x="516" y="120"/>
      <point x="490" y="163.643"/>
      <point x="490" y="250.929" type="curve" smooth="yes"/>
      <point x="490" y="337.286"/>
      <point x="515" y="380"/>
      <point x="569" y="380" type="curve" smooth="yes"/>
      <point x="621" y="380"/>
      <point x="648" y="339.143"/>
      <point x="648" y="251.857" type="curve" smooth="yes"/>
      <point x="648" y="163.643"/>
      <point x="621" y="120"/>
    </contour>
  </outline>
</glyph>
